<svg width="325" height="276" viewBox="0 0 325 276" fill="none" xmlns="http://www.w3.org/2000/svg">
<g clip-path="url(#clip0_1696_1947)">
<path d="M25.9932 256.612C22.4025 244.612 16.5765 219.094 24.5952 189.028C27.7459 177.184 37.8934 139 74.1336 120.472C78.3487 118.343 107.699 103.859 140.589 114.128C184.266 127.759 179.079 167.739 223.182 182.166C251.687 191.483 271.386 180.534 287.196 198.019C294.195 205.892 298.436 215.832 299.276 226.333C300.116 236.833 297.509 247.321 291.851 256.207L25.9932 256.612Z" fill="#EDEDED"/>
<path d="M27.2207 217.121C28.4045 217.643 29.5356 218.278 30.5985 219.016C34.8562 221.932 35.3742 224.693 39.3055 226.523C40.5198 227.084 41.8157 227.448 43.1445 227.602C45.3572 227.841 47.5944 227.521 49.6517 226.672C49.6517 226.672 53.0934 218.263 37.5102 214.467L36.9638 217.029L35.7148 214.978C34.6167 214.699 33.4764 214.624 32.3512 214.758C30.4418 215.01 28.6533 215.834 27.2207 217.121Z" fill="#7373EF"/>
<path d="M32.2377 188.027C33.161 191.004 34.858 193.683 37.1553 195.79C39.5538 197.919 41.193 198.032 44.7695 201.169C46.6855 202.844 47.9557 204.007 48.9208 205.888C50.0714 208.3 50.4363 211.013 49.9639 213.644C45.2293 213.129 40.7395 211.276 37.0205 208.301L38.5745 205.349L35.7361 207.037C33.8955 204.271 32.6363 201.159 32.0349 197.891C31.4335 194.623 31.5025 191.267 32.2377 188.027Z" fill="#7373EF"/>
<path d="M53.9659 201.091C42.2714 198.536 37.9215 186.43 37.9215 186.43C38.2621 185.791 43.4281 184.251 43.4281 184.251L36.6158 183.293C36.6158 183.293 35.3455 181.42 36.041 177.304C36.7364 173.188 33.9121 167.497 33.9121 167.497C37.7657 168.363 41.465 169.811 44.8828 171.791C48.5018 173.919 53.9801 177.091 56.2367 183.3C56.6014 184.308 56.8653 185.349 57.0244 186.409L54.6826 189.673L57.2301 188.445C57.3151 192.879 56.1863 197.252 53.9659 201.091Z" fill="#7373EF"/>
<path d="M64.2983 207.577C64.2983 207.577 54.2572 188.857 80.2009 181.875C80.2009 181.875 77.3624 185.075 77.8024 191.313C78.2423 197.55 76.3831 198.572 76.3831 198.572L71.5364 197.926L75.5245 201.567C75.5245 201.567 70.3585 208.436 64.2983 207.577Z" fill="#7373EF"/>
<path d="M80.9315 213.8C80.9315 213.8 63.4536 207.903 64.1207 223.259C64.1207 223.259 69.6628 228.227 74.8643 220.683L73.445 217.788L75.8577 218.278C75.8577 218.278 79.1575 214.275 80.9315 213.8Z" fill="#7373EF"/>
<path d="M57.7341 238.417C57.6485 238.404 57.5713 238.359 57.5194 238.289C57.4675 238.22 57.4452 238.133 57.4573 238.048C60.0616 220.144 74.6727 215.283 74.8146 215.24C74.8955 215.214 74.9836 215.221 75.0594 215.26C75.1353 215.298 75.1927 215.365 75.2191 215.446C75.2454 215.527 75.2385 215.615 75.2 215.691C75.1614 215.767 75.0942 215.824 75.0133 215.851C74.8714 215.9 60.6435 220.648 58.096 238.14C58.0908 238.182 58.0772 238.223 58.0561 238.259C58.035 238.296 58.0068 238.328 57.9731 238.354C57.9394 238.38 57.9009 238.399 57.8599 238.409C57.8188 238.42 57.7761 238.423 57.7341 238.417Z" fill="#231F20"/>
<path d="M57.4363 241.873C57.3528 241.866 57.2755 241.826 57.2211 241.762C57.1666 241.698 57.1394 241.616 57.1453 241.532C58.1059 223.726 63.1643 206.382 71.9267 190.851C71.9466 190.813 71.974 190.78 72.0074 190.753C72.0407 190.726 72.0792 190.707 72.1205 190.695C72.1617 190.684 72.2049 190.681 72.2472 190.687C72.2895 190.694 72.3302 190.708 72.3666 190.731C72.4402 190.774 72.494 190.844 72.5166 190.926C72.5391 191.008 72.5286 191.096 72.4873 191.171C63.7693 206.607 58.7373 223.851 57.784 241.553C57.7822 241.596 57.7719 241.638 57.7537 241.676C57.7355 241.715 57.7098 241.749 57.678 241.778C57.6463 241.806 57.6092 241.828 57.5689 241.842C57.5286 241.856 57.4859 241.861 57.4434 241.859L57.4363 241.873Z" fill="#231F20"/>
<path d="M56.7053 248.969C56.6632 248.963 56.6227 248.948 56.5862 248.926C56.5497 248.905 56.5179 248.875 56.4928 248.841C56.4677 248.807 56.4497 248.768 56.4399 248.726C56.43 248.685 56.4286 248.642 56.4357 248.6C58.5318 235.385 58.1975 221.899 55.4493 208.804C53.6855 200.506 50.9636 192.44 47.3384 184.77C47.3038 184.691 47.3008 184.603 47.3298 184.522C47.3589 184.441 47.4179 184.375 47.4945 184.337C47.5325 184.318 47.574 184.307 47.6163 184.305C47.6587 184.302 47.7011 184.309 47.741 184.323C47.7808 184.338 47.8173 184.36 47.8481 184.39C47.8789 184.419 47.9035 184.454 47.9203 184.493C51.561 192.214 54.2924 200.332 56.0596 208.684C58.8131 221.852 59.1402 235.413 57.0247 248.699C57.0142 248.776 56.9758 248.845 56.9168 248.895C56.8578 248.945 56.7825 248.971 56.7053 248.969Z" fill="#231F20"/>
<path d="M57.2872 243.334C57.2057 243.327 57.1297 243.289 57.0745 243.229C57.0193 243.169 56.9889 243.09 56.9892 243.008C57.1879 234.492 55.8041 218.512 44.3651 207.222C42.5452 205.426 40.5481 203.818 38.4043 202.425C38.3338 202.377 38.2842 202.304 38.2658 202.221C38.2473 202.138 38.2613 202.051 38.3049 201.978C38.3515 201.906 38.4245 201.855 38.5081 201.836C38.5918 201.818 38.6794 201.833 38.752 201.878C40.9326 203.301 42.9652 204.939 44.8192 206.768C56.4286 218.228 57.8336 234.407 57.6349 243.029C57.635 243.071 57.6264 243.113 57.6099 243.152C57.5933 243.191 57.569 243.226 57.5385 243.255C57.508 243.284 57.4719 243.307 57.4324 243.322C57.3928 243.336 57.3507 243.343 57.3085 243.341L57.2872 243.334Z" fill="#231F20"/>
<path d="M58.8978 243.477C58.8289 243.472 58.7636 243.444 58.7123 243.398C58.6609 243.351 58.6263 243.289 58.614 243.221C57.5592 238.01 55.1514 233.168 51.6325 229.182C48.1136 225.196 43.6076 222.206 38.5673 220.514C38.5272 220.5 38.4902 220.479 38.4583 220.451C38.4265 220.423 38.4004 220.389 38.3816 220.352C38.3437 220.275 38.3377 220.187 38.365 220.106C38.3923 220.025 38.4506 219.958 38.5272 219.92C38.6037 219.882 38.6921 219.876 38.7731 219.903C43.9242 221.628 48.5293 224.681 52.1237 228.753C55.7182 232.826 58.1747 237.775 59.2455 243.101C59.2606 243.184 59.2433 243.27 59.1972 243.342C59.1511 243.413 59.0795 243.464 58.9972 243.484L58.8978 243.477Z" fill="#231F20"/>
<path d="M45.2236 239.765L48.3318 255.661H67.1295L70.2377 239.765H45.2236ZM66.4341 254.816H49.0343L46.2526 240.624H69.2158L66.4341 254.816Z" fill="#231F20"/>
<path d="M69.2157 240.616L66.434 254.816H49.0341L46.2524 240.616H69.2157Z" fill="white"/>
<path d="M71.0394 240.198H44.4288L42.896 234.982H72.5651L71.0394 240.198Z" fill="#231F20"/>
<path d="M303.971 256.697C303.999 257.116 303.859 257.529 303.582 257.846C303.305 258.162 302.915 258.356 302.495 258.385H14.4473C14.0472 258.322 13.683 258.117 13.4201 257.809C13.1571 257.501 13.0127 257.109 13.0127 256.704C13.0127 256.298 13.1571 255.907 13.4201 255.598C13.683 255.29 14.0472 255.086 14.4473 255.022H302.552C302.959 255.065 303.333 255.263 303.597 255.575C303.862 255.887 303.996 256.288 303.971 256.697Z" fill="#231F20"/>
<path d="M198.671 81.3429L199.26 81.0803H198.671V81.3429Z" fill="#FF94AF"/>
<path d="M179.668 69.677V143.768C179.672 145.987 178.795 148.117 177.231 149.691C175.666 151.264 173.542 152.154 171.323 152.163H73.5871C71.3687 152.154 69.2448 151.264 67.6815 149.69C66.1182 148.116 65.2434 145.986 65.2491 143.768V69.677C65.2472 67.4611 66.1237 65.3348 67.6865 63.7639C69.2494 62.1931 71.3712 61.3058 73.5871 61.2964H171.323C173.54 61.3039 175.663 62.1904 177.228 63.7615C178.792 65.3325 179.67 67.4599 179.668 69.677Z" fill="#7373EF"/>
<path d="M170.13 61.2893H70.9614C67.4538 61.2893 64.6104 64.1328 64.6104 67.6404V143.016C64.6104 146.524 67.4538 149.367 70.9614 149.367H170.13C173.638 149.367 176.482 146.524 176.482 143.016V67.6404C176.482 64.1328 173.638 61.2893 170.13 61.2893Z" fill="white"/>
<path d="M168.867 60.6501H72.2174C70.0311 60.652 67.9349 61.5214 66.3889 63.0674C64.8429 64.6133 63.9736 66.7096 63.9717 68.8959V141.752C63.9736 143.939 64.8429 146.035 66.3889 147.581C67.9349 149.127 70.0311 149.996 72.2174 149.998H168.867C171.055 149.994 173.152 149.124 174.699 147.577C176.246 146.03 177.116 143.933 177.12 141.745V68.8959C177.116 66.7089 176.246 64.6127 174.698 63.0669C173.151 61.5211 171.054 60.652 168.867 60.6501ZM175.843 141.752C175.841 143.602 175.105 145.375 173.798 146.683C172.49 147.99 170.717 148.726 168.867 148.728H72.2174C70.3686 148.726 68.5962 147.99 67.2896 146.682C65.9829 145.374 65.249 143.601 65.249 141.752V68.8959C65.2527 67.0489 65.9881 65.2786 67.2941 63.9726C68.6002 62.6666 70.3704 61.9312 72.2174 61.9275H168.867C170.715 61.9312 172.486 62.6664 173.793 63.9722C175.1 65.278 175.837 67.0483 175.843 68.8959V141.752Z" fill="#231F20"/>
<path d="M177.12 81.6052V72.9265H154.1C153.654 72.9303 153.212 72.8457 152.799 72.6776C152.386 72.5095 152.01 72.2613 151.693 71.9473C151.377 71.6333 151.125 71.2596 150.954 70.848C150.782 70.4363 150.694 69.9947 150.694 69.5488V60.6501H142.037V92.5829C142.037 93.4788 141.681 94.3379 141.047 94.9714C140.414 95.6049 139.555 95.9607 138.659 95.9607H118.761C117.865 95.9607 117.006 95.6049 116.373 94.9714C115.739 94.3379 115.383 93.4788 115.383 92.5829V61.9275H106.698V92.5546C106.698 93.4504 106.342 94.3096 105.708 94.943C105.075 95.5765 104.216 95.9323 103.32 95.9323H63.9717V104.618H76.3332C77.2278 104.62 78.0852 104.977 78.7171 105.61C79.349 106.243 79.7039 107.101 79.7039 107.996V121.812C79.7039 122.707 79.349 123.565 78.7171 124.198C78.0852 124.831 77.2278 125.188 76.3332 125.19H64.6032V133.876H112.148C112.471 133.876 112.786 133.972 113.054 134.152C113.323 134.332 113.532 134.587 113.655 134.886C113.778 135.184 113.809 135.513 113.746 135.829C113.682 136.146 113.526 136.437 113.297 136.664L99.9422 149.998H112.233L113.51 148.721L125.637 136.586C127.38 134.849 129.741 133.874 132.201 133.876H176.687V125.161H154.1C153.204 125.161 152.345 124.806 151.712 124.172C151.078 123.539 150.722 122.68 150.722 121.784V84.9546C150.722 84.0587 151.078 83.1996 151.712 82.5661C152.345 81.9326 153.204 81.5768 154.1 81.5768L177.12 81.6052ZM88.418 121.812V107.996C88.418 107.1 88.7739 106.241 89.4073 105.607C90.0408 104.974 90.8999 104.618 91.7958 104.618H138.631C139.526 104.618 140.386 104.974 141.019 105.607C141.652 106.241 142.008 107.1 142.008 107.996V121.812C142.001 122.703 141.642 123.555 141.009 124.182C140.376 124.81 139.521 125.162 138.631 125.161H91.7958C90.9012 125.167 90.0408 124.818 89.4036 124.19C88.7663 123.562 88.4042 122.707 88.3967 121.812H88.418Z" fill="#231F20"/>
<path d="M106.939 33.4008C104.558 31.0219 101.726 29.1421 98.6091 27.8716C95.4921 26.6011 92.1528 25.9654 88.7871 26.0017C85.4213 26.0381 82.0966 26.7457 79.0077 28.0833C75.9189 29.4208 73.128 31.3613 70.7987 33.7911C61.2259 43.7825 61.7581 59.7347 71.5083 69.5203L88.1204 86.1325C88.3704 86.3808 88.7084 86.5201 89.0607 86.5201C89.413 86.5201 89.751 86.3808 90.0009 86.1325L106.939 69.1939C111.678 64.4504 114.34 58.0198 114.34 51.3151C114.34 44.6103 111.678 38.1798 106.939 33.4363V33.4008ZM90.6183 60.3662C88.6872 60.7053 86.6984 60.4204 84.9402 59.5527C83.1821 58.685 81.7461 57.2798 80.8406 55.5408C79.9351 53.8019 79.6072 51.8197 79.9044 49.8817C80.2016 47.9438 81.1085 46.151 82.4936 44.7633C83.8786 43.3757 85.6697 42.4654 87.6071 42.1645C89.5444 41.8636 91.5273 42.1878 93.2679 43.09C95.0086 43.9922 96.4166 45.4255 97.2875 47.182C98.1585 48.9385 98.4473 50.9268 98.1118 52.8585C97.7835 54.724 96.8889 56.4432 95.5495 57.7826C94.2101 59.122 92.4909 60.0166 90.6254 60.345L90.6183 60.3662Z" fill="#7373EF"/>
</g>
<path d="M212.17 53.0328L209.038 64.4449C190.408 59.1646 183.826 44.9926 183.826 44.9926C183.826 44.9926 196.668 36.3331 215.3 41.6178L212.17 53.0328Z" fill="#C9C3C3"/>
<g clip-path="url(#clip1_1696_1947)">
<path d="M250.191 236.75L250.137 237.045L249.137 242.545L249.1 242.75H243.163L243.142 242.522L242.642 237.022L242.618 236.75H250.191Z" fill="white" stroke="black" stroke-width="0.5"/>
<path d="M203.409 236.251L210.409 236.751L210.687 236.771L210.637 237.045L209.637 242.545L209.596 242.77L209.369 242.749L203.869 242.249L203.661 242.23L203.642 242.022L203.142 236.522L203.116 236.229L203.409 236.251Z" fill="white" stroke="black" stroke-width="0.5"/>
<path d="M202.693 243.72C202.693 243.72 201.456 246.761 200.413 247.966C199.371 249.171 195.376 251.323 195.355 254.901C195.331 258.78 202.086 257.704 204.728 257.562C207.371 257.42 207.57 255.348 208.682 253.151C209.794 250.954 210.915 251.326 211.123 249.554C211.331 247.783 210.272 243.816 210.272 243.816L202.693 243.72Z" fill="#231F20"/>
<path d="M286.51 84.7786C286.51 84.7786 273.175 105.755 268.688 104.671C266.615 104.168 260.44 99.4435 257.822 96.0386C254.971 92.339 251.645 87.1235 249.563 83.4587C249.563 83.4587 240.778 70.391 248.276 65.3352C248.276 65.3352 252.792 66.4808 255.326 69.2047C257.859 71.9286 259.137 76.0769 259.808 77.5376C260.479 78.9983 268.218 91.9731 268.698 92.2737C269.179 92.5742 272.725 89.5149 274.869 87.0364C278.027 83.3818 280.934 79.1957 280.934 79.1957L286.51 84.7786Z" fill="#231F20"/>
<path d="M206.915 123.485C206.915 123.485 187.467 102.821 187.01 98.147C186.798 95.985 189.573 89.1999 191.87 85.5656C192.626 84.3677 193.439 83.167 194.255 82.0097C197.519 77.3837 200.826 73.4925 200.826 73.4925C200.826 73.4925 209.161 61.2668 216.308 66.8337C216.308 66.8337 216.491 71.0081 214.794 74.3404C213.447 76.9437 211.719 79.3314 209.667 81.4246C208.536 82.547 198.632 95.3156 198.51 95.8775C198.388 96.4395 201.528 102.789 203.403 105.487C206.077 109.337 211.484 118.554 211.484 118.554L206.915 123.485Z" fill="#231F20"/>
<path d="M249.691 243.925C249.691 243.925 250.95 246.922 251.995 248.104C253.04 249.286 257.02 251.377 257.077 254.928C257.141 258.772 250.437 257.779 247.818 257.668C245.198 257.558 244.979 255.505 243.854 253.341C242.728 251.178 241.622 251.558 241.397 249.804C241.172 248.05 242.216 244.107 242.216 244.107L249.691 243.925Z" fill="#231F20"/>
<path d="M250.163 242.553L249.973 244.621C249.973 244.621 246.3 246.073 242.218 244.708V242.108L250.163 242.553Z" fill="#231F20"/>
<path d="M210.387 242.553L210.197 244.621C210.197 244.621 206.774 245.599 202.693 244.233V241.069L210.387 242.553Z" fill="#231F20"/>
<path d="M206 68.7487L211.967 90.4281C212.172 91.1294 212.416 91.9955 212.676 93.0016L212.685 93.0396L212.693 93.0658C213.688 96.9298 214.921 102.822 215.287 109.368C215.536 113.829 215.31 128.032 215.31 128.032C215.31 128.032 223.593 131.11 237.094 130.235C237.094 130.235 251.788 133.968 250.603 124.945C247.467 101.058 250.534 91.2096 250.945 88.8125C250.945 88.8125 252.588 77.3021 254 67.5822C249.91 66.0395 232.769 60 232.769 60L223.295 60.105C223.295 60.105 209.973 64.1206 206 68.7487Z" fill="#231F20"/>
<path d="M213.285 95.2433C213.285 95.2433 218.858 92.589 220.785 83.6275L240.446 83.4097C240.446 83.4097 246.329 95.3289 249.505 95.9649C249.505 95.9649 248.885 109.052 249.281 114.107C249.677 119.163 250.868 128.723 250.868 128.723C250.868 128.723 249.746 137.451 215.084 131.512C215.084 131.512 215.459 110.508 215.404 109.611C215.348 108.713 213.43 95.7732 213.285 95.2433Z" fill="#231F20"/>
<path d="M220.822 83.6272C220.822 83.6272 218.512 71.451 213.458 64.361C213.458 64.361 213.944 63.77 215.253 63.5493C215.253 63.5493 220.74 71.5265 222.929 83.5996C225.119 95.6728 220.822 83.6272 220.822 83.6272Z" fill="#231F20"/>
<path d="M240.248 83.4068C240.248 83.4068 241.584 72.4153 246.492 65.2135C245.835 64.8201 245.105 64.5642 244.347 64.4614C244.347 64.4614 240.075 71.3118 238.141 83.43C236.207 95.5482 240.248 83.4068 240.248 83.4068Z" fill="#231F20"/>
<path d="M206.141 195.933C206.091 191.196 212.85 150.167 212.966 148.585C213.063 147.189 214.399 138.276 215.088 131.506C215.379 128.618 215.746 125.182 215.746 125.182C215.746 125.182 224.25 123.374 233.415 122.994C238.642 122.777 245.612 122.956 250.355 125.121C250.538 126.324 251.256 131.422 251.341 132.019C253.084 144.468 252.358 160.883 252.682 171.476C253.047 183.545 252.671 194.802 252.599 198.217C252.568 199.568 251.184 238.44 251.184 238.44C251.184 238.44 251.182 238.408 240.494 238.44L240.684 241.692L239.348 218.846L239.278 217.633C238.698 207.413 238.15 197.532 238.133 195.797C238.066 189.599 233.89 153.883 232.528 153.739C231.166 153.595 223.193 189.167 221.631 198.56C221.631 198.56 216.512 228.365 213.024 238.829C199.891 237.649 201.391 237.649 201.391 237.649C201.391 237.649 206.198 200.673 206.141 195.933Z" fill="#231F20"/>
<path d="M250.962 124.45C250.962 124.45 230.993 128.62 214.372 124.856L214.31 122.411C214.31 122.411 230.427 125.987 250.697 122.006L250.962 124.45Z" fill="#97BCFF"/>
<path d="M214.184 117.623L214.209 118.537L214.229 119.263L214.252 120.068C229.409 123.5 247.417 120.332 250.463 119.748C250.376 118.927 250.292 118.106 250.209 117.302C230.147 121.147 214.184 117.623 214.184 117.623Z" fill="#97BCFF"/>
<path d="M211.489 118.549C211.489 118.549 210.807 121.337 206.916 123.486C206.916 123.486 196.235 111.664 195.017 110.187L204.37 106.922C204.37 106.922 209.311 114.619 211.489 118.549Z" fill="#231F20"/>
<path d="M282.761 81.2705L285.224 83.5479L287.678 81.5532L289.311 78.7994L290.5 75L288.925 73.4115L287.522 73.941L286.701 73.1819L287.422 70.9615L287 70.5L285 71L284.73 70.9084L282.92 73.1944L282.982 74.7743L283.044 76.3542L283.282 78.402L281.764 80.0436L282.761 81.2705Z" fill="white"/>
<path d="M281.252 79.8619C281.262 79.7976 281.287 79.7365 281.324 79.6829C281.361 79.6293 281.409 79.5847 281.466 79.5523C282.083 79.2419 282.569 78.7218 282.837 78.0852C283.022 77.402 282.978 76.6768 282.711 76.0213C282.603 75.6829 282.521 75.337 282.465 74.9864C282.196 73.1967 282.192 72.6763 284.5 70.4998C284.637 70.2963 284.781 72.6122 285 72.5001C285.218 72.388 285.254 72.4927 285.5 72.4997C285.746 72.5399 286.304 70.8454 286.5 70.9998C286.696 71.1541 286.135 71.5598 286.232 71.7897C286.641 72.5596 287.999 70.7531 287.662 71.5244C287.443 71.999 287.269 72.4935 287.142 73.001C286.683 75.1757 286.94 73.1046 287.33 73.1948C287.508 73.2381 288.355 73.3858 288.524 73.1607C288.923 72.6455 289.504 74.7632 290 74.9999C290.113 75.0595 290.431 74.3921 290.5 74.4999C290.569 74.6077 291.493 74.3718 291.5 74.4996C291.509 76.5469 289.465 80.276 288.07 81.7749C287.594 82.2256 287.096 82.6515 286.576 83.051C286.164 83.3674 286.022 83.6929 285.543 84.0179C285.453 84.0776 284.957 84.1803 284.851 84.166C284.744 84.1517 284.646 84.0991 284.575 84.0179L281.959 82.0594C281.934 82.0153 281.266 80.1472 281.256 80.0978C281.232 80.0211 281.231 79.9394 281.252 79.8619ZM286.074 82.35C286.793 81.7821 287.363 81.2702 287.495 81.127C288.563 79.9236 290.027 76.6712 290.176 75.0689L291 74.4996C290.534 75.1078 287.85 74.2365 287.107 74.0421C285.887 73.7307 285.831 74.9629 286.287 72.8235C286.415 72.2556 286.604 71.7034 286.853 71.177C287.175 70.4362 287.058 71.1211 286.853 70.7575C286.01 72.896 286.574 70.5718 286.5 70.4998C286.426 70.4277 286.331 70.6218 286.232 70.5905C285.53 71.8408 284.936 72.0001 285.504 70.7575C285.423 70.8103 284.851 71.3979 285.5 70.5C283.768 72.946 285.026 70.9811 285 70.9999C282.898 72.9801 283.11 73.3694 283.326 74.8649C283.378 75.1756 283.451 75.4823 283.545 75.7828C283.879 76.6088 283.926 77.5232 283.677 78.3788C283.421 79.0506 282.963 79.6264 282.365 80.0268L285.035 83.1237C285.38 82.8859 285.727 82.628 286.074 82.35Z" fill="#231F20"/>
</g>
<path d="M235.476 60.0871L236.737 60.7015C236.841 60.7501 236.923 60.839 236.966 60.95C237.01 61.061 237.011 61.1855 236.971 61.2976C236.329 62.9946 235.22 64.4467 233.789 65.464C232.358 66.4813 230.671 67.0165 228.949 66.9996C227.227 66.9828 225.549 66.4147 224.136 65.3696C222.723 64.3245 221.64 62.851 221.028 61.1417C221.007 61.084 220.998 61.0225 221 60.9609C221.003 60.8993 221.017 60.8389 221.042 60.7833C221.067 60.7276 221.102 60.6779 221.146 60.6371C221.189 60.5962 221.24 60.5651 221.295 60.5457L222.427 60.1238C222.666 60.0374 222.927 60.0476 223.159 60.1525C223.392 60.2574 223.58 60.4496 223.688 60.6924C224.167 61.723 224.908 62.5906 225.828 63.1973C226.747 63.804 227.808 64.1255 228.891 64.1255C229.974 64.1255 231.035 63.804 231.954 63.1973C232.874 62.5906 233.615 61.723 234.095 60.6924C234.148 60.556 234.225 60.4321 234.324 60.3278C234.422 60.2235 234.538 60.1408 234.667 60.0845C234.795 60.0283 234.933 59.9996 235.072 60C235.211 60.0005 235.348 60.0301 235.476 60.0871Z" fill="#231F20"/>
<g clip-path="url(#clip2_1696_1947)">
<path d="M251 126.306C251 126.306 230.911 130.501 214.19 126.715L214.127 124.255C214.127 124.255 230.341 127.853 250.733 123.848L251 126.306Z" fill="#97BCFF"/>
<path d="M214 119.437L214.025 120.358L214.045 121.088L214.069 121.897C229.317 125.35 247.433 122.163 250.498 121.576C250.41 120.749 250.325 119.924 250.242 119.115C230.059 122.982 214 119.437 214 119.437Z" fill="#97BCFF"/>
</g>
<path d="M301.192 74.041L300.394 77.5693L211.5 54.5L212.5 51L301.192 74.041Z" fill="#8A664D"/>
<mask id="mask0_1696_1947" style="mask-type:alpha" maskUnits="userSpaceOnUse" x="280" y="68" width="14" height="10">
<rect x="281.451" y="68.9324" width="12" height="6" transform="rotate(13.5557 281.451 68.9324)" fill="#D9D9D9"/>
</mask>
<g mask="url(#mask0_1696_1947)">
<path d="M288.958 72.454C288.276 73.2173 287.987 73.5292 287.577 73.6087C287.002 73.7086 286.263 73.3967 285.117 72.5641C284.648 72.2728 284.303 71.9157 284.105 71.5166C284.055 71.3828 283.676 70.2117 284.725 69.5305C284.898 69.3982 285.136 69.3007 285.397 69.2553C285.451 69.2497 285.505 69.2513 285.554 69.26C285.895 69.307 285.739 69.0519 285.976 69.1955C286.203 69.2989 288.698 69.9486 289.013 70.0648C289.589 70.2792 289.207 70.2793 289.889 70.3719C290.236 70.4483 289.44 70.3946 289.579 70.4374C289.616 70.4639 289.867 70.3393 289.889 70.3719C290.053 70.5701 289.897 71.4033 288.958 72.454Z" fill="white"/>
<path d="M290.614 71.3022C290.452 71.7693 290.167 72.2281 289.772 72.6611C289.02 73.5139 288.597 73.9847 287.733 74.1269C287.534 74.1606 287.332 74.1753 287.134 74.1702C286.222 74.1432 285.374 73.6704 284.373 72.9387C283.823 72.6007 283.424 72.1822 283.207 71.7137C283.098 71.4459 282.646 70.0792 284.077 69.1957C284.398 68.9657 284.829 68.7987 285.295 68.723C285.63 68.6965 285.961 68.7143 286.263 68.7752C286.565 68.836 290.075 69.8841 290.286 70.0207C290.52 70.1341 287.523 69.2925 287.782 69.3868C286.263 68.7752 286.263 68.7752 289.446 69.7923C289.765 69.8205 290.054 69.8992 290.286 70.0207C290.376 70.0801 290.45 70.1473 290.508 70.2206C290.718 70.5533 290.755 70.9286 290.614 71.3022ZM289.657 70.5108C289.634 70.4781 289.604 70.4481 289.567 70.4216C289.428 70.3789 289.277 70.3487 289.118 70.332C287.283 69.8502 288.129 70.1621 287.315 69.8618C287 69.7456 286.649 69.6382 286.422 69.5348C286.185 69.3912 285.883 69.2912 285.542 69.2442C285.493 69.2355 285.439 69.2339 285.385 69.2395C285.124 69.2849 284.886 69.3824 284.713 69.5147C283.664 70.1959 284.06 71.3676 284.094 71.5008C284.291 71.8999 284.636 72.257 285.105 72.5483C286.251 73.381 286.99 73.6929 287.565 73.5929C287.975 73.5134 288.265 73.2015 288.946 72.4382C289.897 71.4031 289.832 70.7245 289.681 70.5115L289.657 70.5108Z" fill="#231F20"/>
</g>
<path d="M299.646 75.3343C300.909 72.5842 304.989 67.784 311.38 69.2839L312.424 69.5293L308.536 86.7047L307.492 86.4593C301.103 84.9565 299.497 78.8161 299.544 75.78V75.5463L299.646 75.3343ZM309.841 71.2266C304.835 70.6749 302.239 75.0018 301.691 76.0472C301.753 77.247 302.01 78.4288 302.451 79.5464C303.335 81.7549 304.844 83.2577 306.945 84.0258L309.841 71.2266Z" fill="#4A3F3F"/>
<path d="M302.086 74.2465L301.298 77.7893L294 76.06L294.796 72.5317L302.086 74.2465Z" fill="#4A3F3F"/>
<path d="M230.817 69.5036L222.527 66.7506C222.433 66.7205 222.352 66.6593 222.297 66.5772C222.242 66.4951 222.217 66.3968 222.225 66.2984L223.154 56.2228C221.432 56.7702 220.052 56.7305 219.036 56.1117C217.925 55.4215 216.87 53.93 217.33 44.0924C217.449 41.6091 217.64 39.1259 217.894 36.7062C217.906 36.5917 217.962 36.4866 218.052 36.4138C218.141 36.341 218.255 36.3064 218.37 36.3175L225.557 36.9363L232.753 37.4282C232.848 37.4332 232.938 37.4694 233.01 37.5311C233.081 37.5929 233.131 37.6766 233.15 37.7693L234.284 42.5294C234.645 42.453 235.017 42.4509 235.379 42.5232C235.74 42.5955 236.083 42.7407 236.387 42.9499C236.684 43.1776 236.928 43.4673 237.102 43.7988C237.276 44.1304 237.376 44.4959 237.394 44.8698C237.513 46.3376 236.284 47.8846 234.316 48.7811C234.023 51.6652 233.983 54.5694 234.197 57.4604C234.398 60.1958 234.823 62.9102 235.466 65.5765C235.486 65.6553 235.482 65.7379 235.457 65.8149C235.432 65.892 235.386 65.9605 235.324 66.0128L231.246 69.4798C231.166 69.5472 231.065 69.5838 230.96 69.5829C230.908 69.5654 230.86 69.5385 230.817 69.5036ZM233.348 57.4684C233.133 54.4418 233.183 51.4022 233.499 48.3844C233.506 48.3047 233.535 48.2285 233.583 48.1641C233.63 48.0998 233.695 48.0497 233.769 48.0195C235.522 47.2896 236.641 46.0282 236.553 44.846C236.543 44.5979 236.479 44.3548 236.367 44.1332C236.255 43.9115 236.096 43.7164 235.903 43.5608C235.641 43.4028 235.346 43.3052 235.042 43.275C234.737 43.2449 234.43 43.2828 234.142 43.3863C234.086 43.4119 234.025 43.4252 233.963 43.4252C233.901 43.4252 233.841 43.4119 233.785 43.3863C233.73 43.3558 233.683 43.3148 233.645 43.2658C233.607 43.2168 233.579 43.1606 233.562 43.1007L232.404 38.2374L225.526 37.7614L218.719 37.1822C218.489 39.4512 218.322 41.7678 218.211 44.0844C217.79 53.0176 218.631 54.7789 219.496 55.3104C220.393 55.8658 221.733 55.8023 223.463 55.128C223.532 55.1014 223.607 55.0926 223.68 55.1023C223.754 55.112 223.824 55.1399 223.883 55.1835C223.942 55.2311 223.988 55.2919 224.018 55.3608C224.049 55.4298 224.062 55.505 224.058 55.5802L223.098 66.0128L230.825 68.5754L234.506 65.4019C233.914 62.7917 233.527 60.139 233.348 57.4684Z" fill="#231F20"/>
<path d="M219.266 55.707C219.893 56.0878 221.155 56.5003 223.654 55.5562L223 63.5C223 63.5 226 66.5 229 66.5C232 66.5 234.5 63.5 234.5 63.5C233.5 58 233.307 54.18 233.912 48.4239C235.848 47.6306 237.085 46.1867 236.966 44.8538C236.951 44.5488 236.873 44.2503 236.736 43.9772C236.6 43.7041 236.408 43.4623 236.173 43.2671C235.853 43.063 235.491 42.9354 235.114 42.8941C234.737 42.8529 234.355 42.899 233.999 43.0291C233.587 41.3075 233.206 39.578 232.769 37.8564L225.566 37.3566L218.37 36.7378C218.18 38.5466 217.957 41.0695 217.815 44.0922C217.323 53.7394 218.354 55.1437 219.266 55.707Z" fill="white"/>
<path d="M217.211 39.1418C214.347 36.7617 213.84 35.0718 214.038 33.8897C214.332 32.0571 216.616 29.8039 216.593 29.8436C219.465 27.3842 221.749 26.9558 223.297 27.0034C225.78 27.0907 226.065 28.4076 229.913 29.1137C233.142 29.7087 234.435 29.0503 235.847 30.2879C236.585 30.9384 236.95 31.8746 237.68 33.8501C238.41 35.8255 238.823 36.8886 238.664 38.0311C238.364 39.6352 237.524 41.0884 236.284 42.1486C235.457 42.7024 234.776 43.4483 234.3 44.3224C234.109 44.7395 233.983 45.1837 233.928 45.6394C233.43 44.432 233.12 43.1559 233.007 41.855C232.973 41.3267 232.973 40.7967 233.007 40.2683C233.017 40.0187 232.937 39.7738 232.781 39.5786C232.625 39.3833 232.404 39.2508 232.158 39.2052C229.881 38.7689 224.907 40.4508 219.012 39.5622C218.405 39.4537 217.804 39.3133 217.211 39.1418Z" fill="#231F20"/>
<path d="M228.097 45.8456C228.001 46.52 227.613 47.0198 227.24 46.9642C226.867 46.9087 226.645 46.3216 226.748 45.6473C226.851 44.9729 227.232 44.4731 227.605 44.5286C227.978 44.5842 228.2 45.1712 228.097 45.8456Z" fill="#231F20"/>
<path d="M221.678 45.0522C221.575 45.7186 221.186 46.2263 220.813 46.1708C220.44 46.1153 220.218 45.5282 220.321 44.8538C220.424 44.1795 220.813 43.6797 221.186 43.7273C221.559 43.7749 221.781 44.3778 221.678 45.0522Z" fill="#231F20"/>
<path d="M221.821 51.0264C223.193 51.3561 224.592 51.5553 226.002 51.6214C225.927 51.8832 225.8 52.1271 225.628 52.3384C225.456 52.5498 225.244 52.7241 225.003 52.8509C224.762 52.9777 224.497 53.0543 224.226 53.0762C223.955 53.098 223.682 53.0646 223.423 52.978C222.976 52.8788 222.576 52.6326 222.285 52.2788C221.995 51.925 221.831 51.484 221.821 51.0264Z" fill="#231F20"/>
<path d="M229.89 44.251C229.963 44.2493 230.034 44.2273 230.096 44.1875C230.136 44.162 230.171 44.1284 230.197 44.089C230.224 44.0496 230.243 44.005 230.252 43.9582C230.261 43.9114 230.26 43.8632 230.249 43.8167C230.239 43.7702 230.219 43.7263 230.191 43.6877C229.803 43.1249 229.26 42.6877 228.627 42.4298C227.994 42.1718 227.3 42.1044 226.629 42.2359C226.583 42.2479 226.54 42.2688 226.502 42.2974C226.465 42.326 226.433 42.3617 226.409 42.4026C226.385 42.4435 226.369 42.4887 226.363 42.5357C226.356 42.5826 226.359 42.6304 226.371 42.6762C226.383 42.722 226.404 42.7651 226.433 42.8028C226.461 42.8406 226.497 42.8724 226.538 42.8963C226.579 42.9202 226.624 42.9359 226.671 42.9424C226.718 42.9488 226.766 42.946 226.811 42.934C227.337 42.8399 227.878 42.8991 228.37 43.1045C228.863 43.3099 229.286 43.6529 229.588 44.0923C229.622 44.1413 229.667 44.1814 229.719 44.209C229.772 44.2367 229.83 44.2511 229.89 44.251Z" fill="#231F20"/>
<path d="M223.13 42.8622C223.18 42.8627 223.231 42.8524 223.277 42.8319C223.324 42.8113 223.365 42.7811 223.399 42.7432C223.434 42.7106 223.461 42.6712 223.48 42.6276C223.499 42.5839 223.509 42.5369 223.509 42.4893C223.509 42.4418 223.499 42.3948 223.48 42.3511C223.461 42.3074 223.434 42.2681 223.399 42.2355C221.725 40.7757 219.647 41.8864 219.559 41.934C219.517 41.9547 219.479 41.9841 219.448 42.0204C219.417 42.0566 219.395 42.0988 219.381 42.1444C219.368 42.19 219.364 42.2378 219.37 42.2849C219.376 42.332 219.392 42.3773 219.417 42.4179C219.465 42.5021 219.544 42.5641 219.638 42.5908C219.731 42.6175 219.831 42.6067 219.917 42.5607C220.384 42.3038 220.916 42.1874 221.448 42.2254C221.98 42.2634 222.489 42.4542 222.915 42.775C222.977 42.8243 223.051 42.8546 223.13 42.8622Z" fill="#231F20"/>
<path d="M224.328 49.8121C224.402 49.8119 224.475 49.789 224.536 49.7465C224.596 49.7039 224.643 49.6438 224.669 49.5741C224.685 49.5293 224.692 49.4818 224.69 49.4342C224.687 49.3867 224.675 49.3401 224.655 49.2972C224.634 49.2544 224.605 49.2161 224.569 49.1846C224.533 49.1531 224.492 49.1291 224.447 49.114L222.59 48.4713C224.407 45.4645 224.431 45.3931 224.447 45.3455C224.462 45.3007 224.467 45.2534 224.464 45.2064C224.46 45.1593 224.447 45.1135 224.426 45.0714C224.405 45.0294 224.375 44.992 224.339 44.9614C224.303 44.9308 224.262 44.9077 224.217 44.8933C224.131 44.8632 224.037 44.866 223.954 44.9012C223.87 44.9364 223.803 45.0014 223.764 45.0837C223.661 45.2741 222.495 47.2178 221.733 48.4872C221.71 48.5353 221.697 48.5882 221.697 48.6419C221.697 48.6956 221.71 48.7485 221.733 48.7966C221.754 48.8453 221.785 48.8894 221.823 48.9262C221.861 48.963 221.906 48.9918 221.956 49.0108L224.233 49.8042C224.264 49.8115 224.296 49.8142 224.328 49.8121Z" fill="#231F20"/>
<path d="M206.198 67.8297C211.135 69.2817 211.348 88.3171 211.348 88.3171C211.348 88.3171 212.732 93.0375 213.313 97.2758C213.625 99.5438 213.953 109.167 214.184 117.619L214.209 118.534L214.229 119.26C214.409 125.893 214.528 131.413 214.528 131.413C214.528 131.413 219.298 134.538 232.316 134.298C232.316 134.298 245.911 133.341 251.69 131.05C251.69 131.05 251.053 125.387 250.463 119.745C250.376 118.923 250.292 118.103 250.209 117.299C249.901 114.261 249.628 111.475 249.53 109.877C249.2 104.954 250.691 89.1346 250.691 89.1346C248.638 71.4539 252.661 67.156 252.661 67.156C248.673 64.7661 236 60.5 236 60.5C233.131 73.2077 229.333 76.7696 229.333 76.7696C224.015 71.3827 221.5 60.5 221.5 60.5C212.508 62.299 206.198 67.8297 206.198 67.8297Z" fill="#7373EF"/>
<g clip-path="url(#clip3_1696_1947)">
<path d="M251 126.562C251 126.562 230.911 130.757 214.19 126.971L214.127 124.511C214.127 124.511 230.341 128.109 250.733 124.104L251 126.562Z" fill="#97BCFF"/>
<path d="M214 119.693L214.025 120.614L214.045 121.344L214.069 122.153C229.317 125.606 247.433 122.419 250.498 121.832C250.41 121.005 250.325 120.18 250.242 119.371C230.059 123.239 214 119.693 214 119.693Z" fill="#97BCFF"/>
</g>
<path d="M208.56 121.638L210.739 119.087L213.41 120.78L215.354 123.323L215.844 125.505L214.993 124.779L213.537 124.418L212.811 125.268L213.06 128.421L214.399 131.329L214.644 132.42L213.918 133.27L211.732 131.697L209.667 129.64L209.542 128.063L209.418 126.487L209.414 124.425L207.714 122.973L208.56 121.638Z" fill="white"/>
<path d="M207.227 123.214C207.245 123.276 207.276 123.334 207.319 123.383C207.363 123.432 207.416 123.471 207.476 123.496C208.125 123.732 208.669 124.191 209.01 124.792C209.274 125.449 209.315 126.174 209.127 126.857C209.06 127.205 209.019 127.558 209.004 127.913C208.948 129.722 210.215 131.598 212.763 133.488C212.923 133.674 213.128 133.817 213.358 133.902C213.588 133.988 213.837 134.014 214.08 133.978C214.32 133.91 214.538 133.781 214.715 133.605C214.891 133.428 215.021 133.21 215.09 132.97C215.406 132.158 214.997 131.468 214.572 130.741C214.298 130.296 214.067 129.825 213.883 129.336C213.171 127.23 213.567 125.171 213.944 125.035C214.115 124.971 214.707 125.584 214.902 125.788C215.359 126.252 215.781 126.692 216.246 126.399C216.351 126.327 216.436 126.228 216.492 126.113C216.548 125.998 216.572 125.87 216.564 125.742C216.333 123.708 215.335 121.838 213.774 120.514C213.249 120.122 212.703 119.758 212.14 119.422C211.638 119.109 211.121 118.818 210.607 118.551C210.511 118.502 210.4 118.49 210.296 118.517C210.192 118.544 210.101 118.607 210.04 118.696L207.24 122.833C207.22 122.879 207.208 122.929 207.204 122.979C207.189 123.058 207.197 123.139 207.227 123.214ZM211.724 120.177C212.504 120.656 213.13 121.098 213.279 121.225C214.481 122.294 215.31 123.72 215.645 125.294L215.535 125.177C215.001 124.627 214.338 123.94 213.623 124.22C212.448 124.672 212.35 127.541 213.054 129.612C213.247 130.162 213.5 130.688 213.809 131.181C214.216 131.879 214.423 132.265 214.262 132.65C214.239 132.751 214.194 132.846 214.128 132.926C214.063 133.006 213.98 133.07 213.886 133.113C213.789 133.112 213.693 133.09 213.606 133.047C213.519 133.004 213.443 132.942 213.383 132.866C213.361 132.842 213.336 132.822 213.308 132.806C210.988 131.086 209.834 129.443 209.874 127.933C209.888 127.618 209.925 127.305 209.984 126.995C210.219 126.136 210.157 125.222 209.81 124.402C209.476 123.765 208.954 123.247 208.314 122.919L210.601 119.53C210.972 119.726 211.347 119.941 211.724 120.177Z" fill="#231F20"/>
<defs>
<clipPath id="clip0_1696_1947">
<rect width="291" height="232.393" fill="white" transform="translate(13 26)"/>
</clipPath>
<clipPath id="clip1_1696_1947">
<rect width="124.939" height="231.86" fill="white" transform="translate(187 26)"/>
</clipPath>
<clipPath id="clip2_1696_1947">
<rect width="37" height="9.18208" fill="white" transform="translate(214 119.116)"/>
</clipPath>
<clipPath id="clip3_1696_1947">
<rect width="37" height="9.18208" fill="white" transform="translate(214 119.372)"/>
</clipPath>
</defs>
</svg>
