<svg width="325" height="276" viewBox="0 0 325 276" fill="none" xmlns="http://www.w3.org/2000/svg">
<g clip-path="url(#clip0_1696_1677)">
<path d="M30.9902 256.884C27.4212 245.194 21.6684 220.334 29.6254 191.038C32.7508 179.498 42.8301 142.293 78.8207 124.236C83.0039 122.134 112.15 108.056 144.817 118.094C188.185 131.374 183.032 170.326 226.837 184.384C255.13 193.433 274.688 182.746 290.39 199.807C297.336 207.412 301.559 217.11 302.394 227.376C303.229 237.642 300.629 247.894 295.003 256.522L30.9902 256.884Z" fill="#EDEDED"/>
<path d="M254.133 223.343C255.166 223.799 256.153 224.352 257.081 224.994C260.773 227.54 261.251 229.962 264.677 231.546C265.736 232.037 266.867 232.355 268.027 232.487C269.958 232.696 271.91 232.417 273.705 231.675C273.705 231.675 276.701 224.339 263.114 221.03L262.636 223.261C262.275 222.667 261.906 222.074 261.544 221.473C260.586 221.233 259.592 221.168 258.61 221.282C256.943 221.5 255.382 222.219 254.133 223.343Z" fill="#7373EF"/>
<path d="M258.542 197.964C259.347 200.561 260.829 202.897 262.834 204.734C264.929 206.597 266.355 206.685 269.481 209.429C271.146 210.889 272.258 211.879 273.098 213.523C274.103 215.629 274.42 217.997 274.005 220.293C269.875 219.842 265.96 218.223 262.718 215.625L264.083 213.025L261.599 214.499C260 212.092 258.904 209.386 258.379 206.544C257.853 203.703 257.909 200.784 258.542 197.964Z" fill="#7373EF"/>
<path d="M277.485 209.36C267.283 207.136 263.489 196.579 263.489 196.579C263.789 196.012 268.266 194.668 268.266 194.668L262.322 193.842C262.322 193.842 261.21 192.204 261.824 188.615C262.438 185.025 259.988 180.057 259.988 180.057C263.345 180.814 266.566 182.077 269.542 183.804C272.695 185.646 277.472 188.431 279.423 193.842C279.74 194.728 279.968 195.642 280.106 196.572L278.059 199.424L280.283 198.353C280.371 202.209 279.404 206.015 277.485 209.36Z" fill="#7373EF"/>
<path d="M286.52 215.018C286.52 215.018 277.758 198.681 300.394 192.593C300.394 192.593 297.89 195.384 298.306 200.823C298.722 206.262 297.084 207.156 297.084 207.156L292.86 206.597L296.34 209.77C296.34 209.77 291.789 215.768 286.52 215.018Z" fill="#7373EF"/>
<path d="M301.015 220.449C301.015 220.449 285.763 215.304 286.364 228.7C286.364 228.7 291.202 233.054 295.734 226.455L294.512 223.923L296.621 224.353C296.621 224.353 299.487 220.866 301.015 220.449Z" fill="#7373EF"/>
<path d="M280.781 241.925C280.744 241.921 280.708 241.91 280.675 241.891C280.643 241.872 280.615 241.847 280.592 241.817C280.57 241.787 280.554 241.752 280.545 241.716C280.537 241.679 280.536 241.641 280.543 241.605C282.815 225.984 295.556 221.746 295.685 221.705C295.757 221.683 295.834 221.689 295.901 221.724C295.968 221.759 296.018 221.818 296.04 221.89C296.063 221.961 296.056 222.039 296.022 222.105C295.987 222.172 295.927 222.222 295.856 222.244C295.733 222.285 283.32 226.428 281.095 241.686C281.084 241.759 281.044 241.824 280.986 241.868C280.928 241.913 280.854 241.933 280.781 241.925Z" fill="#231F20"/>
<path d="M280.516 244.942C280.442 244.935 280.374 244.899 280.326 244.843C280.277 244.788 280.252 244.715 280.256 244.641C281.095 229.106 285.511 213.975 293.161 200.428C293.197 200.362 293.258 200.314 293.329 200.294C293.401 200.273 293.478 200.282 293.543 200.318C293.608 200.355 293.656 200.415 293.677 200.487C293.697 200.558 293.688 200.635 293.652 200.7C286.05 214.177 281.66 229.225 280.823 244.675C280.817 244.75 280.783 244.82 280.727 244.87C280.671 244.919 280.597 244.945 280.522 244.942H280.516Z" fill="#231F20"/>
<path d="M279.874 251.131C279.837 251.126 279.802 251.114 279.77 251.095C279.738 251.076 279.711 251.051 279.689 251.021C279.667 250.991 279.652 250.956 279.644 250.92C279.636 250.884 279.635 250.847 279.642 250.81C282.668 231.87 279.909 212.458 271.726 195.112C271.694 195.044 271.691 194.966 271.716 194.896C271.742 194.825 271.794 194.768 271.862 194.736C271.93 194.705 272.008 194.701 272.078 194.727C272.149 194.752 272.206 194.805 272.238 194.873C280.46 212.324 283.233 231.848 280.194 250.899C280.189 250.935 280.176 250.97 280.157 251.001C280.137 251.033 280.112 251.06 280.082 251.082C280.052 251.103 280.019 251.119 279.983 251.127C279.947 251.136 279.91 251.137 279.874 251.131Z" fill="#231F20"/>
<path d="M280.379 246.211C280.308 246.206 280.241 246.173 280.194 246.119C280.147 246.066 280.123 245.996 280.126 245.924C280.297 238.493 279.089 224.558 269.112 214.704C267.521 213.138 265.777 211.737 263.905 210.521C263.844 210.479 263.801 210.415 263.786 210.343C263.771 210.27 263.784 210.194 263.823 210.132C263.843 210.1 263.868 210.072 263.899 210.051C263.929 210.029 263.964 210.014 264 210.007C264.037 209.999 264.074 209.999 264.111 210.006C264.147 210.014 264.182 210.028 264.212 210.05C266.119 211.283 267.894 212.71 269.508 214.308C279.635 224.305 280.856 238.418 280.686 245.938C280.686 245.975 280.678 246.012 280.664 246.047C280.649 246.081 280.628 246.112 280.602 246.138C280.575 246.164 280.543 246.185 280.508 246.198C280.474 246.212 280.437 246.219 280.399 246.218L280.379 246.211Z" fill="#231F20"/>
<path d="M281.792 246.34C281.731 246.334 281.675 246.308 281.63 246.268C281.584 246.228 281.553 246.174 281.539 246.115C280.619 241.571 278.518 237.349 275.448 233.875C272.377 230.4 268.446 227.797 264.049 226.325C263.978 226.3 263.919 226.248 263.886 226.181C263.853 226.113 263.847 226.035 263.871 225.963C263.896 225.894 263.947 225.837 264.014 225.805C264.08 225.773 264.156 225.769 264.226 225.793C268.719 227.299 272.736 229.962 275.872 233.514C279.009 237.066 281.154 241.382 282.092 246.027C282.106 246.1 282.091 246.176 282.05 246.238C282.01 246.3 281.946 246.345 281.873 246.361L281.792 246.34Z" fill="#231F20"/>
<path d="M269.856 243.099L272.586 256.966H288.964L291.693 243.099H269.856ZM288.363 256.229H273.179L270.757 243.836H290.786L288.363 256.229Z" fill="#231F20"/>
<path d="M290.786 243.836L288.363 256.229H273.179L270.757 243.836H290.786Z" fill="white"/>
<path d="M292.376 243.468H269.16L267.829 238.923H293.713L292.376 243.468Z" fill="#231F20"/>
<path d="M306.993 256.966C307.008 257.148 306.986 257.331 306.929 257.504C306.871 257.678 306.78 257.838 306.66 257.975C306.539 258.113 306.393 258.225 306.229 258.305C306.064 258.384 305.886 258.43 305.703 258.44H20.2895C19.9331 258.391 19.6064 258.215 19.3698 257.944C19.1333 257.673 19.0029 257.325 19.0029 256.966C19.0029 256.606 19.1333 256.258 19.3698 255.987C19.6064 255.716 19.9331 255.54 20.2895 255.492H305.717C305.898 255.503 306.075 255.55 306.238 255.631C306.401 255.711 306.546 255.823 306.665 255.961C306.783 256.098 306.874 256.257 306.93 256.43C306.986 256.603 307.008 256.785 306.993 256.966Z" fill="#231F20"/>
<path d="M83.2974 240.56L83.7341 249.827L89.6507 249.043L88.7908 238.138L83.2974 240.56Z" fill="white"/>
<path d="M83.7339 250.23C83.6389 250.23 83.547 250.196 83.4746 250.135C83.4329 250.099 83.3988 250.055 83.3742 250.006C83.3496 249.957 83.335 249.903 83.3312 249.848L82.9013 240.581C82.8975 240.501 82.9184 240.421 82.961 240.353C83.0037 240.284 83.0662 240.231 83.1402 240.199L88.5995 237.776C88.6561 237.746 88.7194 237.73 88.7837 237.73C88.8481 237.73 88.9114 237.746 88.968 237.776C89.0234 237.809 89.0702 237.855 89.1045 237.91C89.1389 237.964 89.16 238.026 89.1659 238.09L90.0257 249.009C90.0336 249.111 90.002 249.213 89.9372 249.293C89.8725 249.373 89.7797 249.425 89.6777 249.439L83.7612 250.23H83.7339ZM83.7339 240.82L84.1297 249.371L89.2341 248.688L88.4494 238.732L83.7339 240.82Z" fill="#231F20"/>
<path d="M44.8229 242.437L43.772 248.19H48.9515L50.1253 241.106L44.8229 242.437Z" fill="white"/>
<path d="M48.9513 248.599H43.7718C43.7126 248.599 43.6543 248.585 43.6012 248.559C43.548 248.533 43.5014 248.495 43.4647 248.449C43.4269 248.404 43.3994 248.352 43.3841 248.295C43.3688 248.239 43.366 248.179 43.376 248.122L44.4269 242.369C44.44 242.293 44.4746 242.222 44.5266 242.165C44.5786 242.109 44.6458 242.068 44.7203 242.048L50.0295 240.751C50.0941 240.738 50.161 240.74 50.2249 240.756C50.2888 240.773 50.3481 240.804 50.398 240.847C50.4463 240.893 50.4828 240.95 50.5042 241.013C50.5256 241.076 50.5313 241.143 50.5209 241.209L49.3471 248.258C49.3338 248.353 49.2863 248.44 49.2135 248.503C49.1407 248.566 49.0475 248.6 48.9513 248.599ZM44.2631 247.794H48.6169L49.6337 241.652L45.1707 242.799L44.2631 247.794Z" fill="#231F20"/>
<path d="M50.5616 248.21V254.4H29.9731C30.0055 254.076 30.138 253.771 30.352 253.526C30.5661 253.282 30.8511 253.11 31.1674 253.035C35.5354 251.931 39.6517 250.002 43.2939 247.35H49.7223C49.9462 247.357 50.1587 247.451 50.3152 247.611C50.4716 247.771 50.56 247.986 50.5616 248.21Z" fill="#231F20"/>
<path d="M103.708 254.557H82.4785C82.5331 252.51 82.5741 250.408 82.6286 248.326C82.634 248.092 82.7303 247.869 82.8972 247.705C83.0641 247.541 83.2884 247.448 83.5226 247.446L90.5788 247.357C90.8124 247.355 91.0395 247.435 91.2203 247.583C94.5298 250.228 98.381 252.113 102.501 253.103C102.836 253.175 103.137 253.357 103.356 253.621C103.575 253.885 103.699 254.214 103.708 254.557Z" fill="#231F20"/>
<path d="M50.5615 254.4V255.539H29.9321V254.57C29.925 254.514 29.925 254.456 29.9321 254.4H50.5615Z" fill="#231F20"/>
<path d="M103.708 254.557V255.526L82.4785 255.765C82.4785 255.362 82.4785 254.953 82.4785 254.55L103.708 254.557Z" fill="#231F20"/>
<path d="M43.2871 243.666L51.1281 182.931L56.9696 125.703H88.8111L90.3465 189.57V242.628L81.9733 243.816C80.2035 225.049 78.4338 206.283 76.6641 187.516L72.631 156.651C69.9969 167.41 67.365 178.156 64.7354 188.888L51.8378 243.816L43.2871 243.666Z" fill="#231F20"/>
<path d="M78.5066 73.2455C77.9333 73.6003 76.7869 73.9825 74.4939 73.109L75.4016 82.9699L67.8199 85.488L64.0871 82.3148C65.3223 77.1799 65.6731 71.872 65.1244 66.6192C63.3501 65.8822 62.2309 64.572 62.3265 63.3505C62.3448 63.0662 62.4222 62.7889 62.5538 62.5362C62.6854 62.2836 62.8683 62.0612 63.0908 61.8833C63.383 61.7002 63.713 61.586 64.0559 61.5493C64.3988 61.5127 64.7455 61.5545 65.0698 61.6717C65.4519 60.0953 65.8273 58.5121 66.2026 56.9357L72.7811 56.4853L79.3664 55.9189C79.537 57.5704 79.7485 59.877 79.8714 62.6407C80.2877 71.4507 79.3391 72.7337 78.5066 73.2455Z" fill="white"/>
<path d="M67.8198 85.8909C67.7228 85.8905 67.6288 85.8568 67.5537 85.7953L63.8277 82.6221C63.7702 82.5741 63.7275 82.5108 63.7046 82.4396C63.6816 82.3683 63.6794 82.292 63.6981 82.2195C64.2853 79.7824 64.6733 77.3016 64.8582 74.8016C65.0425 72.1574 65.0014 69.5023 64.7353 66.8651C62.9338 66.0462 61.8078 64.6268 61.917 63.2893C61.9361 62.948 62.0282 62.6149 62.1872 62.3123C62.3461 62.0098 62.5681 61.7448 62.8382 61.5354C63.1155 61.3429 63.4295 61.2097 63.7606 61.1439C64.0917 61.0782 64.4328 61.0814 64.7626 61.1533L65.7931 56.82C65.8132 56.7352 65.8597 56.6592 65.926 56.6027C65.9922 56.5463 66.0748 56.5124 66.1616 56.506L72.7401 56.0556L79.3186 55.4892C79.4181 55.4808 79.5172 55.5096 79.5967 55.5702C79.6761 55.6307 79.7302 55.7186 79.7485 55.8168C79.9873 58.0347 80.1579 60.3071 80.2603 62.5727C80.6834 71.567 79.7212 72.9318 78.7044 73.5596C77.7763 74.1328 76.5138 74.167 74.9374 73.6688L75.7905 82.9019C75.797 82.9934 75.7731 83.0845 75.7225 83.161C75.6719 83.2375 75.5974 83.2951 75.5107 83.325L67.9427 85.8431C67.9048 85.8659 67.8632 85.8821 67.8198 85.8909ZM64.5374 82.1649L67.9017 85.031L74.9716 82.6903L74.0913 73.1365C74.0848 73.0689 74.0958 73.0007 74.1233 72.9385C74.1508 72.8764 74.1938 72.8224 74.2482 72.7817C74.3035 72.7412 74.368 72.7151 74.4359 72.7056C74.5037 72.6961 74.5729 72.7034 74.6372 72.7271C76.2477 73.3412 77.476 73.4095 78.2949 72.8977C79.0661 72.4132 79.8577 70.8299 79.4755 62.641C79.3732 60.5255 79.2162 58.4032 79.0047 56.3286L72.8151 56.8609L66.5233 57.2976L65.4655 61.7402C65.4525 61.7957 65.4283 61.848 65.3942 61.8938C65.3602 61.9396 65.3171 61.9779 65.2676 62.0063C65.2162 62.0297 65.1603 62.0418 65.1038 62.0418C65.0473 62.0418 64.9915 62.0297 64.9401 62.0063C64.6756 61.9096 64.3927 61.8741 64.1126 61.9025C63.8325 61.9309 63.5624 62.0224 63.3227 62.1701C63.1463 62.311 63.002 62.488 62.8996 62.6893C62.7972 62.8906 62.739 63.1114 62.729 63.337C62.6471 64.3811 63.6708 65.5344 65.2744 66.21C65.3418 66.2364 65.4005 66.281 65.4439 66.3388C65.4873 66.3967 65.5137 66.4655 65.5201 66.5376C65.8146 69.2985 65.8603 72.0803 65.6566 74.8494C65.4756 77.3134 65.1014 79.7594 64.5374 82.1649Z" fill="#231F20"/>
<path d="M113.248 85.4063C113.33 84.6817 113.666 84.0095 114.197 83.5092C115.091 82.7449 116.169 82.9632 117.138 82.7517C118.223 82.5128 119.656 81.5916 120.994 78.3842C121.087 78.2547 121.148 78.1048 121.172 77.9469C121.196 77.7891 121.181 77.6278 121.13 77.4766C121.042 77.3421 120.923 77.2305 120.783 77.151C120.643 77.0715 120.486 77.0264 120.325 77.0194C119.363 76.9034 118.858 78.0498 117.595 78.8346C115.917 79.906 113.665 80.2472 113.228 79.6194C112.791 78.9916 114.272 77.6131 113.979 77.3333C113.685 77.0535 110.805 78.6981 109.945 80.6567C109.857 80.8546 109.604 81.5029 109.345 82.3081C109.147 82.9291 109.011 83.4546 108.922 83.8367L113.248 85.4063Z" fill="white"/>
<path d="M113.248 85.8431C113.203 85.8502 113.157 85.8502 113.112 85.8431L108.82 84.2736C108.727 84.2395 108.65 84.1728 108.604 84.086C108.557 83.9993 108.544 83.8985 108.567 83.8027C108.69 83.2909 108.833 82.7654 108.997 82.2468C109.249 81.4484 109.509 80.7932 109.611 80.5544C110.452 78.8925 111.89 77.6102 113.637 76.9649C113.753 76.9243 113.877 76.9156 113.997 76.9396C114.117 76.9636 114.229 77.0195 114.32 77.1014C114.682 77.4494 114.381 77.9271 114.067 78.4662C113.931 78.6846 113.521 79.3465 113.617 79.483C113.828 79.7833 115.732 79.6809 117.438 78.589C117.836 78.3208 118.204 78.012 118.537 77.6678C119.097 77.1287 119.609 76.6168 120.4 76.7192C120.614 76.7246 120.822 76.787 121.004 76.8998C121.185 77.0126 121.333 77.1718 121.433 77.361C121.532 77.5501 121.579 77.7624 121.569 77.9759C121.559 78.1894 121.493 78.3963 121.376 78.5754C120.257 81.2505 118.872 82.7859 117.282 83.1407C116.962 83.2051 116.638 83.2462 116.312 83.2636C115.667 83.2437 115.034 83.4381 114.511 83.8163C114.052 84.2527 113.765 84.8382 113.699 85.4678C113.689 85.5263 113.667 85.582 113.634 85.6314C113.601 85.6808 113.558 85.7227 113.508 85.7544C113.433 85.811 113.342 85.8421 113.248 85.8431ZM109.434 83.6116L112.948 84.9014C113.097 84.2606 113.44 83.6815 113.931 83.2431C114.58 82.7457 115.379 82.4834 116.196 82.4993C116.485 82.4814 116.772 82.4449 117.056 82.3901C118.421 82.0967 119.609 80.7045 120.619 78.2956L120.659 78.2274C120.714 78.1455 120.851 77.8861 120.769 77.7224C120.71 77.6482 120.636 77.5886 120.55 77.5483C120.465 77.5081 120.372 77.4882 120.277 77.4903C119.895 77.4426 119.595 77.7087 119.069 78.2205C118.7 78.6026 118.291 78.9435 117.848 79.2373C116.162 80.3155 113.59 80.8615 112.935 79.9197C112.532 79.3465 112.989 78.6095 113.358 78.0158L113.44 77.8861C112.119 78.5342 111.037 79.5826 110.348 80.882C110.273 81.0594 110.021 81.7008 109.761 82.4993C109.645 82.8132 109.529 83.1953 109.434 83.5775V83.6116Z" fill="#231F20"/>
<path d="M108.335 83.3591L101.804 99.4914L91.4044 82.3696C90.9104 81.5643 90.1679 80.9416 89.2889 80.5953C84.4847 78.8165 79.6782 77.0263 74.8695 75.2247C74.5329 76.3493 73.8467 77.3374 72.9104 78.0455C71.9741 78.7536 70.8364 79.1448 69.6626 79.1622C68.4217 79.2135 67.2059 78.8026 66.2506 78.009C65.4218 77.2605 64.885 76.2426 64.7356 75.136L50.5891 82.9565C49.4865 83.5645 48.5337 84.4114 47.8005 85.435C47.0672 86.4587 46.5721 87.6334 46.3513 88.873C45.0138 96.5798 43.6785 104.282 42.3455 111.98C42.2212 112.763 42.3143 113.565 42.6147 114.299C42.915 115.034 43.4111 115.671 44.0488 116.143C44.6865 116.614 45.4414 116.902 46.2313 116.974C47.0211 117.046 47.8156 116.9 48.5282 116.552L57.229 112.457C57.345 114.088 57.4269 115.992 57.4133 118.121C57.4133 118.66 57.4133 119.22 57.4133 119.793V119.937C57.4133 120.79 57.3518 121.622 57.2973 122.421C57.2973 122.967 57.2222 123.492 57.1812 124.011C57.0721 125.328 56.9288 126.57 56.7718 127.73C67.3649 130.039 78.3425 129.927 88.8863 127.402C88.8863 126.536 88.8863 125.655 88.8453 124.775C88.8453 124.29 88.8453 123.799 88.8453 123.315C88.8453 122.35 88.8453 121.381 88.8453 120.407C88.8453 119.923 88.8453 119.438 88.8453 118.947C88.8453 118.572 88.8453 118.196 88.8453 117.814C88.9545 111.673 89.2889 105.892 89.7803 100.392L101.702 114.934C102.036 115.34 102.476 115.646 102.974 115.817C103.471 115.988 104.006 116.018 104.519 115.903C105.032 115.789 105.503 115.534 105.881 115.168C106.258 114.802 106.526 114.338 106.656 113.829C108.972 104.221 111.285 94.6121 113.597 85.0037L108.335 83.3591ZM52.4521 107.421L55.1818 99.4778C55.755 101.757 56.1849 103.9 56.4988 105.872L52.4521 107.421Z" fill="#7373EF"/>
<path d="M80.39 58.0959C83.0036 55.9258 83.4745 54.3768 83.297 53.319C83.0241 51.6403 80.9427 49.5794 80.9632 49.6067C78.3359 47.3615 76.2409 46.9725 74.8214 47.0203C72.5558 47.0954 72.2897 48.3033 68.7752 48.9447C65.8204 49.4838 64.633 48.8901 63.3159 50.0161C62.6335 50.6166 62.3059 51.5038 61.6372 53.2781C60.9684 55.0523 60.5931 56.0555 60.7364 57.0996C61.0002 58.5644 61.7591 59.8942 62.886 60.8665C63.6504 61.3531 64.2851 62.0182 64.7353 62.8046C64.917 63.1829 65.0346 63.5888 65.0834 64.0056C65.538 62.9019 65.821 61.7351 65.9227 60.5458C65.9492 60.0616 65.9492 59.5764 65.9227 59.0922C65.9146 58.8499 65.9989 58.6136 66.1586 58.4311C66.3182 58.2486 66.5413 58.1337 66.7826 58.1096C68.8298 57.7138 73.4088 59.256 78.8068 58.4371C79.3409 58.3555 79.8696 58.2416 80.39 58.0959Z" fill="#231F20"/>
<path d="M70.4337 64.231C70.5224 64.8452 70.8772 65.3093 71.2184 65.2547C71.5596 65.2001 71.7644 64.6678 71.6688 64.0536C71.5733 63.4394 71.2253 62.9754 70.8841 63.0232C70.5429 63.0709 70.3381 63.6169 70.4337 64.231Z" fill="#231F20"/>
<path d="M76.3366 63.5008C76.4321 64.1218 76.787 64.579 77.1282 64.5313C77.4694 64.4835 77.6673 63.9376 77.5786 63.3234C77.4899 62.7092 77.135 62.2452 76.787 62.2998C76.439 62.3544 76.2138 62.8867 76.3366 63.5008Z" fill="#231F20"/>
<path d="M76.1658 68.9668C74.9141 69.2679 73.6369 69.4507 72.3511 69.5127C72.5027 69.9406 72.7978 70.3029 73.1863 70.5378C73.5747 70.7728 74.0326 70.8661 74.482 70.8017C74.9314 70.7374 75.3447 70.5195 75.6516 70.185C75.9586 69.8505 76.1402 69.4201 76.1658 68.9668Z" fill="#231F20"/>
<path d="M68.83 62.7705C68.7627 62.7692 68.6968 62.7504 68.6389 62.7159C68.6029 62.6919 68.572 62.6609 68.548 62.6249C68.524 62.5888 68.5074 62.5483 68.4992 62.5058C68.4909 62.4633 68.4912 62.4196 68.4999 62.3771C68.5087 62.3347 68.5258 62.2945 68.5502 62.2587C68.905 61.7433 69.4031 61.3433 69.9828 61.108C70.5626 60.8727 71.1986 60.8125 71.8122 60.9348C71.8545 60.9451 71.8944 60.9638 71.9294 60.9898C71.9645 61.0157 71.994 61.0484 72.0162 61.0859C72.0385 61.1234 72.053 61.165 72.059 61.2082C72.065 61.2514 72.0623 61.2953 72.051 61.3374C72.0271 61.4223 71.9707 61.4942 71.894 61.5377C71.8173 61.5811 71.7266 61.5925 71.6416 61.5695C71.155 61.4777 70.6522 61.5302 70.1951 61.7206C69.7379 61.9109 69.3465 62.2308 69.0689 62.6409C69.0413 62.679 69.0055 62.7104 68.9642 62.7329C68.9229 62.7553 68.877 62.7682 68.83 62.7705Z" fill="#231F20"/>
<path d="M74.9719 61.5012C74.9245 61.502 74.8774 61.4926 74.8339 61.4738C74.7904 61.455 74.7513 61.4271 74.7194 61.392C74.6888 61.3616 74.6646 61.3255 74.6481 61.2856C74.6316 61.2458 74.623 61.2031 74.623 61.16C74.623 61.1169 74.6316 61.0742 74.6481 61.0344C74.6646 60.9946 74.6888 60.9584 74.7194 60.928C76.2548 59.5973 78.1315 60.6073 78.2407 60.655C78.3165 60.6968 78.3727 60.7669 78.397 60.8501C78.4213 60.9332 78.4117 61.0225 78.3703 61.0986C78.3259 61.1754 78.2533 61.2319 78.168 61.2561C78.0826 61.2803 77.9912 61.2703 77.9131 61.2283C77.4867 60.9985 77.0038 60.8945 76.5206 60.9283C76.0374 60.9622 75.5737 61.1324 75.1834 61.4193C75.1246 61.4705 75.0498 61.4994 74.9719 61.5012Z" fill="#231F20"/>
<path d="M73.8867 67.8613C73.8166 67.8613 73.7482 67.8397 73.6908 67.7994C73.6334 67.7591 73.5898 67.7021 73.566 67.6361C73.552 67.5954 73.5463 67.5522 73.549 67.5092C73.5517 67.4662 73.5629 67.4242 73.582 67.3855C73.601 67.3468 73.6274 67.3123 73.6598 67.2839C73.6922 67.2555 73.7299 67.2337 73.7707 67.2199L75.4699 66.633C73.8117 63.9033 73.7844 63.8146 73.7707 63.7737C73.7447 63.6904 73.7523 63.6003 73.7918 63.5225C73.8313 63.4447 73.8997 63.3855 73.9823 63.3574C74.0613 63.331 74.1473 63.3345 74.224 63.3672C74.3007 63.3999 74.3628 63.4595 74.3985 63.5348C74.4872 63.7054 75.5518 65.4865 76.2547 66.6466C76.2749 66.6905 76.2854 66.7382 76.2854 66.7865C76.2854 66.8348 76.2749 66.8825 76.2547 66.9264C76.2377 66.9727 76.2104 67.0145 76.175 67.0488C76.1395 67.083 76.0968 67.1089 76.05 67.1243L73.9686 67.8409L73.8867 67.8613Z" fill="#231F20"/>
<path d="M71.6073 89.6715L68.8299 108.363C68.818 108.441 68.8233 108.521 68.8454 108.597C68.8674 108.673 68.9058 108.743 68.9577 108.803C69.0096 108.863 69.0739 108.91 69.1461 108.943C69.2183 108.975 69.2967 108.992 69.3758 108.991H83.7066C83.839 108.992 83.9677 108.946 84.0691 108.861C84.1706 108.776 84.2381 108.657 84.2593 108.527L87.0709 89.8421C87.0829 89.7633 87.0774 89.6828 87.055 89.6063C87.0325 89.5298 86.9936 89.4591 86.9409 89.3993C86.8882 89.3394 86.8231 89.2919 86.75 89.2599C86.677 89.2279 86.5978 89.2124 86.5181 89.2143H72.1874C72.0513 89.2055 71.9169 89.2474 71.8098 89.3318C71.7027 89.4162 71.6306 89.5372 71.6073 89.6715Z" fill="white"/>
<path d="M83.6795 109.386H69.3487C69.21 109.387 69.0727 109.358 68.9465 109.3C68.8203 109.243 68.7084 109.158 68.6186 109.052C68.5281 108.951 68.4611 108.832 68.4222 108.702C68.3832 108.572 68.3734 108.435 68.3934 108.301L71.2117 89.61C71.2463 89.384 71.3612 89.1781 71.5355 89.0301C71.7098 88.8822 71.9317 88.8021 72.1603 88.8047H86.491C86.6306 88.8045 86.7687 88.8343 86.8958 88.8919C87.023 88.9496 87.1363 89.0339 87.228 89.1391C87.317 89.242 87.3821 89.3632 87.4187 89.4942C87.4553 89.6251 87.4624 89.7626 87.4396 89.8966L84.628 108.581C84.5935 108.807 84.4785 109.013 84.3042 109.161C84.1299 109.309 83.9081 109.389 83.6795 109.386ZM72.0033 89.7328L69.1918 108.417C69.1841 108.436 69.1801 108.455 69.1801 108.475C69.1801 108.495 69.1841 108.515 69.1918 108.533C69.2081 108.549 69.2273 108.561 69.2484 108.57C69.2695 108.578 69.292 108.582 69.3146 108.581H83.6454C83.6817 108.582 83.7172 108.57 83.7458 108.548C83.7745 108.525 83.7944 108.494 83.8023 108.458L86.6139 89.7738C86.6175 89.7542 86.6162 89.734 86.6103 89.715C86.6043 89.696 86.5939 89.6787 86.5797 89.6646C86.5649 89.6466 86.5461 89.6323 86.5248 89.6228C86.5035 89.6133 86.4802 89.6089 86.4569 89.61H72.1262C72.0901 89.6104 72.0552 89.6226 72.0269 89.6448C71.9985 89.667 71.9782 89.6979 71.9692 89.7328H72.0033Z" fill="#231F20"/>
<path d="M78.6907 100.583C79.5274 100.583 80.2057 99.9172 80.2057 99.0956C80.2057 98.274 79.5274 97.6079 78.6907 97.6079C77.8541 97.6079 77.1758 98.274 77.1758 99.0956C77.1758 99.9172 77.8541 100.583 78.6907 100.583Z" fill="white"/>
<path d="M78.6979 100.986C78.325 100.982 77.9615 100.868 77.6534 100.658C77.3452 100.447 77.1061 100.151 76.9662 99.8051C76.8263 99.4593 76.7917 99.0799 76.867 98.7146C76.9422 98.3493 77.1238 98.0144 77.389 97.752C77.6542 97.4897 77.991 97.3117 78.3571 97.2404C78.7232 97.1691 79.1022 97.2077 79.4465 97.3514C79.7907 97.495 80.0847 97.7373 80.2915 98.0477C80.4983 98.3581 80.6087 98.7228 80.6087 99.0957C80.6051 99.5995 80.402 100.081 80.0438 100.436C79.6857 100.79 79.2017 100.988 78.6979 100.986ZM78.6979 98.0107C78.4846 98.0161 78.2776 98.0842 78.1027 98.2067C77.9279 98.3291 77.7931 98.5004 77.7152 98.6991C77.6372 98.8978 77.6196 99.115 77.6645 99.3237C77.7094 99.5323 77.8148 99.7231 77.9676 99.8721C78.1204 100.021 78.3137 100.122 78.5234 100.162C78.7331 100.201 78.9499 100.178 79.1465 100.095C79.3432 100.012 79.5111 99.8734 79.6291 99.6956C79.7472 99.5178 79.8102 99.3092 79.8103 99.0957C79.8085 98.9515 79.7783 98.8089 79.7215 98.6763C79.6646 98.5437 79.5821 98.4236 79.4789 98.3228C79.3756 98.2221 79.2534 98.1427 79.1194 98.0891C78.9855 98.0355 78.8422 98.0089 78.6979 98.0107Z" fill="#231F20"/>
<path d="M66.1343 103.067C66.7212 102.944 67.2852 102.73 67.8062 102.433C68.522 102.026 69.1376 101.464 69.6078 100.788C69.7041 100.656 69.8277 100.546 69.9701 100.466C70.1126 100.386 70.2706 100.338 70.4335 100.324C72.2351 100.174 72.5422 99.7917 73.6409 99.239C75.149 98.4883 75.3537 97.3691 76.3705 97.451C76.6947 97.4813 77.0018 97.6098 77.2508 97.8195C78.0629 98.5497 77.708 100.031 77.5511 100.672C77.2219 101.935 76.5403 103.078 75.5857 103.968C74.8011 104.733 73.8736 105.336 72.8561 105.742C72.5728 105.857 72.2662 105.901 71.9621 105.872C70.4918 105.742 69.0144 106.025 67.697 106.691C67.1829 105.481 66.662 104.273 66.1343 103.067Z" fill="white"/>
<path d="M67.7179 107.093C67.6725 107.099 67.6267 107.099 67.5814 107.093C67.5299 107.075 67.4827 107.046 67.4428 107.008C67.4029 106.971 67.3711 106.925 67.3494 106.875L65.7661 103.251C65.741 103.197 65.728 103.138 65.728 103.077C65.728 103.017 65.741 102.958 65.7661 102.903C65.7935 102.851 65.8322 102.806 65.8794 102.77C65.9267 102.735 65.9812 102.71 66.0391 102.699C66.5852 102.585 67.1101 102.387 67.595 102.112C68.2597 101.734 68.831 101.211 69.2669 100.583C69.3952 100.402 69.5621 100.252 69.7557 100.143C69.9493 100.035 70.1646 99.9704 70.3861 99.9554C71.2537 99.93 72.0999 99.6809 72.8428 99.2321C73.0271 99.1297 73.2181 99.0205 73.4501 98.9113C73.9609 98.6516 74.4226 98.3053 74.815 97.8877C74.9601 97.6707 75.1503 97.4876 75.3726 97.3508C75.5949 97.214 75.8441 97.1268 76.1032 97.095C76.3623 97.0633 76.6252 97.0878 76.8739 97.1669C77.1227 97.246 77.3515 97.3778 77.5446 97.5533C78.5341 98.4336 78.1383 100.085 77.9746 100.788C77.6215 102.125 76.9004 103.335 75.8932 104.282C75.0697 105.086 74.0957 105.719 73.0271 106.145C72.6849 106.281 72.3156 106.335 71.9488 106.302C71.5627 106.271 71.1748 106.271 70.7887 106.302C69.7833 106.365 68.8012 106.632 67.9021 107.087C67.8423 107.105 67.7789 107.107 67.7179 107.093ZM66.6942 103.34L67.9226 106.152C68.8123 105.761 69.7641 105.53 70.7341 105.469C71.1611 105.435 71.5901 105.435 72.0171 105.469C72.25 105.487 72.4837 105.449 72.6995 105.36C73.6717 104.977 74.5579 104.404 75.3063 103.675C76.2068 102.836 76.8506 101.76 77.1625 100.57C77.299 100.003 77.6129 98.6793 76.9851 98.1129C76.8013 97.9599 76.575 97.867 76.3368 97.8468C75.9751 97.8468 75.7635 98.0037 75.3404 98.4268C74.896 98.9001 74.3745 99.2947 73.7982 99.5938L73.2181 99.9008C72.3779 100.408 71.4214 100.69 70.4407 100.72C70.3371 100.724 70.2359 100.753 70.1449 100.802C70.0538 100.852 69.9753 100.922 69.9152 101.006C69.4085 101.732 68.7494 102.337 67.984 102.781C67.5759 103.014 67.1434 103.202 66.6942 103.34Z" fill="#231F20"/>
<path d="M64.4423 75.2109L63.3777 75.7023C63.2937 75.7437 63.2278 75.8145 63.1926 75.9013C63.1574 75.9881 63.1553 76.0849 63.1867 76.1731C63.7262 77.5155 64.6579 78.6641 65.8603 79.4687C67.0627 80.2733 68.4798 80.6966 69.9265 80.6834C71.3732 80.6701 72.7823 80.2209 73.9697 79.3943C75.1571 78.5678 76.0677 77.4024 76.5825 76.0503C76.6061 75.959 76.5938 75.8621 76.5481 75.7795C76.5024 75.697 76.4268 75.6352 76.3368 75.6067L75.3883 75.2723C75.1865 75.2033 74.9663 75.211 74.7699 75.2941C74.5735 75.3772 74.4146 75.5298 74.3237 75.7227C73.9216 76.5388 73.2991 77.2261 72.5267 77.7067C71.7542 78.1873 70.8626 78.442 69.9528 78.442C69.043 78.442 68.1514 78.1873 67.379 77.7067C66.6065 77.2261 65.984 76.5388 65.5819 75.7227C65.4964 75.5055 65.3293 75.3304 65.1164 75.2347C64.9034 75.1391 64.6615 75.1305 64.4423 75.2109Z" fill="#97BCFF"/>
<path d="M65.7317 102.337L63.0635 103.361C63.9028 105.06 64.7422 106.773 65.5884 108.451L68.1065 107.291L65.7317 102.337Z" fill="#97BCFF"/>
<path d="M108.281 83.2703C107.967 84.1233 107.653 84.9763 107.332 85.8293L112.873 87.4876L113.617 85.0172L108.281 83.2703Z" fill="#97BCFF"/>
<path d="M88.7974 124.741C88.0624 124.721 87.3497 124.484 86.7501 124.058C86.3331 123.747 85.8239 123.583 85.3034 123.594C84.7822 123.578 84.2714 123.742 83.8567 124.058C83.1956 124.511 82.4129 124.754 81.6115 124.754C80.8101 124.754 80.0275 124.511 79.3664 124.058C78.9445 123.756 78.4386 123.594 77.9197 123.594C77.4007 123.594 76.8948 123.756 76.4729 124.058C75.8119 124.511 75.0292 124.754 74.2278 124.754C73.4264 124.754 72.6437 124.511 71.9826 124.058C71.5608 123.756 71.0549 123.594 70.5359 123.594C70.017 123.594 69.511 123.756 69.0892 124.058C68.4281 124.511 67.6454 124.754 66.844 124.754C66.0426 124.754 65.26 124.511 64.5989 124.058C64.1781 123.757 63.6733 123.594 63.1556 123.594C62.6378 123.594 62.1331 123.757 61.7123 124.058C61.0519 124.51 60.2705 124.751 59.4705 124.751C58.6705 124.751 57.8892 124.51 57.2288 124.058L57.1128 123.99C57.1537 123.471 57.1947 122.946 57.2288 122.4C57.5096 122.517 57.7772 122.664 58.0272 122.837C58.448 123.139 58.9528 123.301 59.4705 123.301C59.9883 123.301 60.4931 123.139 60.9138 122.837C61.5745 122.38 62.3589 122.135 63.1624 122.135C63.9659 122.135 64.7503 122.38 65.411 122.837C65.8318 123.139 66.3365 123.301 66.8543 123.301C67.372 123.301 67.8768 123.139 68.2976 122.837C68.9569 122.379 69.7402 122.134 70.5427 122.134C71.3453 122.134 72.1286 122.379 72.7879 122.837C73.2097 123.139 73.7157 123.302 74.2346 123.302C74.7536 123.302 75.2595 123.139 75.6813 122.837C76.3406 122.379 77.124 122.134 77.9265 122.134C78.729 122.134 79.5123 122.379 80.1716 122.837C80.5935 123.139 81.0994 123.302 81.6184 123.302C82.1373 123.302 82.6432 123.139 83.0651 122.837C83.7243 122.379 84.5077 122.134 85.3102 122.134C86.1127 122.134 86.8961 122.379 87.5554 122.837C87.9062 123.101 88.3253 123.26 88.7632 123.294C88.7905 123.779 88.7905 124.27 88.7974 124.741Z" fill="#97BCFF"/>
<path d="M88.7973 118.927C88.7973 119.418 88.7973 119.902 88.7973 120.387C88.0773 120.355 87.3813 120.118 86.791 119.705C86.3741 119.393 85.8648 119.23 85.3443 119.241C84.8231 119.225 84.3123 119.388 83.8976 119.705C83.2365 120.158 82.4539 120.4 81.6524 120.4C80.851 120.4 80.0684 120.158 79.4073 119.705C78.9855 119.402 78.4795 119.24 77.9606 119.24C77.4416 119.24 76.9357 119.402 76.5139 119.705C75.8528 120.158 75.0701 120.4 74.2687 120.4C73.4673 120.4 72.6846 120.158 72.0236 119.705C71.6017 119.402 71.0958 119.24 70.5768 119.24C70.0579 119.24 69.552 119.402 69.1301 119.705C68.469 120.158 67.6864 120.4 66.885 120.4C66.0836 120.4 65.3009 120.158 64.6398 119.705C64.219 119.403 63.7143 119.241 63.1965 119.241C62.6788 119.241 62.174 119.403 61.7532 119.705C61.0974 120.167 60.3103 120.406 59.5081 120.387C58.7543 120.405 58.0131 120.191 57.3857 119.773C57.3857 119.2 57.3857 118.64 57.3857 118.101C57.6222 118.206 57.8504 118.329 58.0682 118.469C58.489 118.771 58.9937 118.933 59.5115 118.933C60.0292 118.933 60.534 118.771 60.9548 118.469C61.6155 118.012 62.3999 117.767 63.2033 117.767C64.0068 117.767 64.7912 118.012 65.4519 118.469C65.8727 118.771 66.3774 118.933 66.8952 118.933C67.413 118.933 67.9177 118.771 68.3385 118.469C68.9978 118.012 69.7811 117.767 70.5837 117.767C71.3862 117.767 72.1695 118.012 72.8288 118.469C73.2507 118.772 73.7566 118.934 74.2755 118.934C74.7945 118.934 75.3004 118.772 75.7223 118.469C76.3815 118.012 77.1649 117.767 77.9674 117.767C78.7699 117.767 79.5533 118.012 80.2125 118.469C80.6273 118.785 81.1381 118.949 81.6593 118.933C82.1798 118.944 82.689 118.781 83.106 118.469C83.7653 118.012 84.5486 117.767 85.3512 117.767C86.1537 117.767 86.937 118.012 87.5963 118.469C87.9449 118.733 88.3616 118.892 88.7973 118.927Z" fill="#97BCFF"/>
<path d="M57.4814 112.218L65.8479 108.24" stroke="#231F20" stroke-width="0.682416" stroke-miterlimit="10" stroke-linecap="round"/>
<path d="M56.458 105.872L63.0638 103.354" stroke="#231F20" stroke-width="0.682416" stroke-miterlimit="10" stroke-linecap="round"/>
<path d="M55.1406 99.4778L56.1779 95.2468" stroke="#231F20" stroke-width="0.682416" stroke-miterlimit="10" stroke-linecap="round"/>
<path d="M89.746 100.372L87.4531 97.4441" stroke="#231F20" stroke-width="0.682416" stroke-miterlimit="10" stroke-linecap="round"/>
<path d="M245.699 97.2051H232.924V104.548H245.699V97.2051Z" fill="#5454F1"/>
<path d="M232.924 97.2051H137.918V104.548H232.924V97.2051Z" fill="#7373EF"/>
<path d="M245.699 139.065H232.924V148.851H245.699V139.065Z" fill="#5454F1"/>
<path d="M232.924 139.065H137.918V148.851H232.924V139.065Z" fill="#7373EF"/>
<path d="M252.277 106.732V138.43C252.273 139.448 251.868 140.423 251.148 141.143C250.428 141.862 249.453 142.268 248.435 142.272H152.699C151.681 142.27 150.704 141.865 149.984 141.145C149.264 140.424 148.859 139.448 148.857 138.43V106.732C148.862 105.716 149.269 104.743 149.989 104.026C150.709 103.309 151.683 102.905 152.699 102.903H248.435C249.451 102.907 250.424 103.311 251.143 104.028C251.862 104.745 252.27 105.716 252.277 106.732Z" fill="#231F20"/>
<path d="M232.924 106.739V138.437C232.922 139.028 232.686 139.595 232.268 140.013C231.85 140.431 231.284 140.666 230.692 140.668H134.956C134.365 140.666 133.798 140.431 133.38 140.013C132.962 139.595 132.726 139.028 132.725 138.437V106.739C132.724 106.445 132.781 106.153 132.892 105.881C133.004 105.61 133.168 105.362 133.375 105.154C133.583 104.945 133.829 104.78 134.1 104.666C134.371 104.553 134.662 104.494 134.956 104.493H230.692C230.986 104.494 231.277 104.553 231.548 104.666C231.82 104.78 232.066 104.945 232.273 105.154C232.48 105.362 232.644 105.61 232.756 105.881C232.868 106.153 232.925 106.445 232.924 106.739Z" fill="white"/>
<path d="M230.692 102.903H134.956C133.936 102.907 132.959 103.315 132.239 104.037C131.519 104.76 131.114 105.739 131.114 106.759V138.457C131.118 139.475 131.524 140.45 132.244 141.17C132.963 141.89 133.938 142.296 134.956 142.299H230.692C231.71 142.296 232.685 141.89 233.405 141.17C234.125 140.45 234.531 139.475 234.534 138.457V106.738C234.529 105.722 234.122 104.748 233.403 104.03C232.683 103.312 231.709 102.907 230.692 102.903ZM232.924 138.457C232.922 139.048 232.686 139.615 232.268 140.033C231.85 140.451 231.284 140.687 230.692 140.689H134.956C134.365 140.687 133.798 140.451 133.38 140.033C132.962 139.615 132.727 139.048 132.725 138.457V106.738C132.724 106.445 132.781 106.153 132.893 105.881C133.004 105.609 133.168 105.362 133.376 105.154C133.583 104.945 133.829 104.78 134.1 104.666C134.371 104.553 134.662 104.494 134.956 104.493H230.692C230.986 104.494 231.277 104.553 231.548 104.666C231.82 104.78 232.066 104.945 232.273 105.154C232.48 105.362 232.644 105.609 232.756 105.881C232.868 106.153 232.925 106.445 232.924 106.738V138.457Z" fill="#231F20"/>
<path d="M149.239 129.627C147.844 129.628 146.481 129.216 145.32 128.442C144.16 127.668 143.255 126.567 142.721 125.278C142.187 123.99 142.046 122.572 142.318 121.204C142.59 119.836 143.262 118.579 144.248 117.593C145.234 116.607 146.491 115.935 147.859 115.663C149.227 115.391 150.645 115.532 151.933 116.066C153.222 116.6 154.323 117.505 155.097 118.665C155.871 119.826 156.283 121.189 156.282 122.584C156.28 124.451 155.537 126.242 154.217 127.562C152.897 128.882 151.107 129.625 149.239 129.627ZM149.239 117.145C148.16 117.145 147.104 117.466 146.206 118.065C145.308 118.665 144.609 119.518 144.196 120.516C143.782 121.513 143.674 122.611 143.885 123.67C144.096 124.729 144.615 125.702 145.379 126.465C146.142 127.229 147.115 127.749 148.174 127.959C149.233 128.17 150.331 128.062 151.328 127.648C152.326 127.235 153.179 126.536 153.779 125.638C154.378 124.74 154.699 123.684 154.699 122.605C154.699 121.157 154.123 119.768 153.1 118.744C152.076 117.721 150.687 117.145 149.239 117.145Z" fill="#231F20"/>
<path d="M205.306 119.479H166.654C165.199 119.479 164.02 120.659 164.02 122.113V123.048C164.02 124.503 165.199 125.682 166.654 125.682H205.306C206.761 125.682 207.94 124.503 207.94 123.048V122.113C207.94 120.659 206.761 119.479 205.306 119.479Z" fill="#7373EF"/>
<path d="M219.542 125.683C221.256 125.683 222.647 124.292 222.647 122.578C222.647 120.863 221.256 119.473 219.542 119.473C217.827 119.473 216.437 120.863 216.437 122.578C216.437 124.292 217.827 125.683 219.542 125.683Z" fill="#231F20"/>
<path d="M247.132 183.428L246.129 188.717C245.992 189.369 245.633 189.954 245.112 190.37C244.592 190.786 243.942 191.007 243.276 190.996H232.924V183.428H247.132Z" fill="#5454F1"/>
<path d="M232.924 183.428V190.996H140.341C139.675 191.006 139.026 190.784 138.506 190.368C137.985 189.952 137.626 189.369 137.488 188.717L136.492 183.428H232.924Z" fill="#7373EF"/>
<path d="M252.277 151.089V182.787C252.273 183.805 251.868 184.78 251.148 185.5C250.428 186.219 249.453 186.625 248.435 186.629H152.699C151.681 186.627 150.704 186.222 149.984 185.502C149.264 184.782 148.859 183.805 148.857 182.787V151.089C148.862 150.073 149.269 149.1 149.989 148.383C150.709 147.666 151.683 147.262 152.699 147.26H248.435C249.451 147.264 250.424 147.668 251.143 148.385C251.862 149.102 252.27 150.073 252.277 151.089Z" fill="#231F20"/>
<path d="M232.924 151.096V182.794C232.922 183.385 232.686 183.952 232.268 184.37C231.85 184.788 231.284 185.024 230.692 185.025H134.956C134.365 185.024 133.798 184.788 133.38 184.37C132.962 183.952 132.726 183.385 132.725 182.794V151.096C132.724 150.802 132.781 150.51 132.892 150.239C133.004 149.967 133.168 149.719 133.375 149.511C133.583 149.302 133.829 149.137 134.1 149.023C134.371 148.91 134.662 148.851 134.956 148.85H230.692C230.986 148.851 231.277 148.91 231.548 149.023C231.82 149.137 232.066 149.302 232.273 149.511C232.48 149.719 232.644 149.967 232.756 150.239C232.868 150.51 232.925 150.802 232.924 151.096Z" fill="white"/>
<path d="M230.692 147.26H134.956C133.936 147.264 132.959 147.672 132.239 148.394C131.519 149.117 131.114 150.096 131.114 151.116V182.814C131.118 183.832 131.524 184.807 132.244 185.527C132.963 186.247 133.938 186.653 134.956 186.656H230.692C231.71 186.653 232.685 186.247 233.405 185.527C234.125 184.807 234.531 183.832 234.534 182.814V151.096C234.529 150.079 234.122 149.105 233.403 148.387C232.683 147.669 231.709 147.264 230.692 147.26ZM232.924 182.814C232.922 183.406 232.686 183.972 232.268 184.39C231.85 184.808 231.284 185.044 230.692 185.046H134.956C134.365 185.044 133.798 184.808 133.38 184.39C132.962 183.972 132.727 183.406 132.725 182.814V151.096C132.724 150.802 132.781 150.51 132.893 150.238C133.004 149.967 133.168 149.719 133.376 149.511C133.583 149.302 133.829 149.137 134.1 149.023C134.371 148.91 134.662 148.851 134.956 148.85H230.692C230.986 148.851 231.277 148.91 231.548 149.023C231.82 149.137 232.066 149.302 232.273 149.511C232.48 149.719 232.644 149.967 232.756 150.238C232.868 150.51 232.925 150.802 232.924 151.096V182.814Z" fill="#231F20"/>
<path d="M149.239 173.984C147.844 173.985 146.481 173.573 145.32 172.799C144.16 172.025 143.255 170.924 142.721 169.635C142.187 168.347 142.046 166.929 142.318 165.561C142.59 164.193 143.262 162.936 144.248 161.95C145.234 160.964 146.491 160.292 147.859 160.02C149.227 159.748 150.645 159.889 151.933 160.423C153.222 160.957 154.323 161.862 155.097 163.022C155.871 164.183 156.283 165.546 156.282 166.941C156.28 168.809 155.537 170.599 154.217 171.919C152.897 173.239 151.107 173.982 149.239 173.984ZM149.239 161.502C148.16 161.502 147.104 161.823 146.206 162.423C145.308 163.022 144.609 163.875 144.196 164.873C143.782 165.87 143.674 166.968 143.885 168.027C144.096 169.086 144.615 170.059 145.379 170.822C146.142 171.586 147.115 172.106 148.174 172.316C149.233 172.527 150.331 172.419 151.328 172.006C152.326 171.592 153.179 170.893 153.779 169.995C154.378 169.097 154.699 168.042 154.699 166.962C154.699 165.514 154.123 164.125 153.1 163.101C152.076 162.078 150.687 161.502 149.239 161.502Z" fill="#231F20"/>
<path d="M205.306 163.836H166.654C165.199 163.836 164.02 165.016 164.02 166.47V167.405C164.02 168.86 165.199 170.039 166.654 170.039H205.306C206.761 170.039 207.94 168.86 207.94 167.405V166.47C207.94 165.016 206.761 163.836 205.306 163.836Z" fill="#7373EF"/>
<path d="M219.542 170.04C221.256 170.04 222.647 168.65 222.647 166.935C222.647 165.22 221.256 163.83 219.542 163.83C217.827 163.83 216.437 165.22 216.437 166.935C216.437 168.65 217.827 170.04 219.542 170.04Z" fill="#231F20"/>
<path d="M252.277 62.3747V94.073C252.273 95.0908 251.868 96.066 251.148 96.7857C250.428 97.5054 249.453 97.9114 248.435 97.915H152.699C151.681 97.9132 150.704 97.5078 149.984 96.7877C149.264 96.0675 148.859 95.0914 148.857 94.073V62.3747C148.862 61.3587 149.269 60.386 149.989 59.6688C150.709 58.9517 151.683 58.5482 152.699 58.5464H248.435C249.451 58.55 250.424 58.954 251.143 59.6708C251.862 60.3876 252.27 61.3593 252.277 62.3747Z" fill="#231F20"/>
<path d="M232.924 62.3816V94.0798C232.922 94.6711 232.686 95.2377 232.268 95.6558C231.85 96.0739 231.284 96.3095 230.692 96.3113H134.956C134.365 96.3095 133.798 96.0739 133.38 95.6558C132.962 95.2377 132.726 94.6711 132.725 94.0798V62.3816C132.724 62.0877 132.781 61.7964 132.892 61.5245C133.004 61.2526 133.168 61.0054 133.375 60.7969C133.583 60.5884 133.829 60.4228 134.1 60.3095C134.371 60.1961 134.662 60.1374 134.956 60.1365H230.692C230.986 60.1374 231.277 60.1961 231.548 60.3095C231.82 60.4228 232.066 60.5884 232.273 60.7969C232.48 61.0054 232.644 61.2526 232.756 61.5245C232.868 61.7964 232.925 62.0877 232.924 62.3816Z" fill="white"/>
<path d="M230.692 58.5464H134.956C133.936 58.55 132.959 58.9578 132.239 59.6805C131.519 60.4032 131.114 61.3818 131.114 62.402V94.1003C131.118 95.1181 131.524 96.0933 132.244 96.813C132.963 97.5327 133.938 97.9387 134.956 97.9423H230.692C231.71 97.9387 232.685 97.5327 233.405 96.813C234.125 96.0933 234.531 95.1181 234.534 94.1003V62.3816C234.529 61.3649 234.122 60.3915 233.403 59.6732C232.683 58.955 231.709 58.55 230.692 58.5464ZM232.924 94.1003C232.922 94.6915 232.686 95.2581 232.268 95.6762C231.85 96.0943 231.284 96.33 230.692 96.3318H134.956C134.365 96.33 133.798 96.0943 133.38 95.6762C132.962 95.2581 132.727 94.6915 132.725 94.1003V62.3816C132.724 62.0876 132.781 61.7964 132.893 61.5245C133.004 61.2526 133.168 61.0053 133.376 60.7968C133.583 60.5883 133.829 60.4227 134.1 60.3094C134.371 60.1961 134.662 60.1373 134.956 60.1364H230.692C230.986 60.1373 231.277 60.1961 231.548 60.3094C231.82 60.4227 232.066 60.5883 232.273 60.7968C232.48 61.0053 232.644 61.2526 232.756 61.5245C232.868 61.7964 232.925 62.0876 232.924 62.3816V94.1003Z" fill="#231F20"/>
<path d="M149.239 85.2699C147.844 85.2712 146.481 84.8587 145.32 84.0847C144.16 83.3106 143.255 82.2097 142.721 80.9213C142.187 79.6329 142.046 78.215 142.318 76.8469C142.59 75.4788 143.262 74.2221 144.248 73.2359C145.234 72.2496 146.491 71.578 147.859 71.3063C149.227 71.0345 150.645 71.1747 151.933 71.7091C153.222 72.2434 154.323 73.148 155.097 74.3083C155.871 75.4686 156.283 76.8325 156.282 78.2273C156.28 80.0946 155.537 81.8848 154.217 83.2051C152.897 84.5255 151.107 85.2681 149.239 85.2699ZM149.239 72.7885C148.16 72.7885 147.104 73.1087 146.206 73.7085C145.308 74.3084 144.609 75.161 144.196 76.1586C143.782 77.1562 143.674 78.2539 143.885 79.3129C144.096 80.3719 144.615 81.3446 145.379 82.1081C146.142 82.8716 147.115 83.3916 148.174 83.6022C149.233 83.8129 150.331 83.7048 151.328 83.2916C152.326 82.8784 153.179 82.1786 153.779 81.2808C154.378 80.3831 154.699 79.3275 154.699 78.2478C154.699 76.7999 154.123 75.4113 153.1 74.3875C152.076 73.3636 150.687 72.7885 149.239 72.7885Z" fill="#231F20"/>
<path d="M205.306 75.1223H166.654C165.199 75.1223 164.02 76.3017 164.02 77.7564V78.6913C164.02 80.1461 165.199 81.3255 166.654 81.3255H205.306C206.761 81.3255 207.94 80.1461 207.94 78.6913V77.7564C207.94 76.3017 206.761 75.1223 205.306 75.1223Z" fill="#7373EF"/>
<path d="M219.542 81.3255C221.256 81.3255 222.647 79.9353 222.647 78.2205C222.647 76.5056 221.256 75.1155 219.542 75.1155C217.827 75.1155 216.437 76.5056 216.437 78.2205C216.437 79.9353 217.827 81.3255 219.542 81.3255Z" fill="#231F20"/>
</g>
<defs>
<clipPath id="clip0_1696_1677">
<rect width="288" height="211.44" fill="white" transform="translate(19 47)"/>
</clipPath>
</defs>
</svg>
