<svg width="325" height="276" viewBox="0 0 325 276" fill="none" xmlns="http://www.w3.org/2000/svg">
<g clip-path="url(#clip0_1696_2067)">
<path d="M24.7496 256.472C21.0287 243.969 15.023 217.376 23.3057 186.054C26.5664 173.709 37.0863 133.915 74.6359 114.652C79.0073 112.407 109.417 97.3487 143.507 108.043C188.768 122.244 183.357 163.903 229.095 178.938C258.639 188.648 279.076 177.24 295.435 195.455C302.685 203.68 307.073 214.034 307.941 224.963C308.81 235.893 306.111 246.809 300.251 256.076L24.7496 256.472Z" fill="#EDEDED"/>
<path d="M86.5044 13.5224V153.598C86.5034 153.873 86.5565 154.145 86.6608 154.4C86.7651 154.654 86.9185 154.886 87.1122 155.081C87.306 155.276 87.5363 155.431 87.79 155.537C88.0437 155.644 88.3159 155.699 88.5909 155.7H178.867C179.142 155.699 179.414 155.644 179.668 155.537C179.922 155.431 180.152 155.276 180.346 155.081C180.539 154.886 180.693 154.654 180.797 154.4C180.901 154.145 180.955 153.873 180.954 153.598V13.5224C180.956 13.2467 180.903 12.9733 180.799 12.7179C180.696 12.4625 180.542 12.23 180.349 12.034C180.155 11.8379 179.924 11.682 179.67 11.5753C179.416 11.4686 179.143 11.4131 178.867 11.4121H88.5909C88.0347 11.4163 87.5028 11.6407 87.1118 12.0363C86.7207 12.4318 86.5023 12.9662 86.5044 13.5224Z" fill="#231F20"/>
<path d="M89.3526 12.1025V151.733C89.3546 152.036 89.4757 152.325 89.6895 152.539C89.9033 152.753 90.1927 152.874 90.495 152.876H180.755C181.058 152.874 181.347 152.753 181.561 152.539C181.775 152.325 181.896 152.036 181.898 151.733V12.1025C181.899 11.9518 181.87 11.8024 181.813 11.6629C181.756 11.5234 181.672 11.3965 181.566 11.2896C181.46 11.1826 181.333 11.0978 181.194 11.0399C181.055 10.982 180.906 10.9521 180.755 10.9521H90.495C90.3443 10.9521 90.1951 10.982 90.056 11.0399C89.9168 11.0978 89.7905 11.1826 89.6844 11.2896C89.5782 11.3965 89.4942 11.5234 89.4372 11.6629C89.3803 11.8024 89.3515 11.9518 89.3526 12.1025Z" fill="white"/>
<path d="M88.4243 12.1026V151.733C88.4264 152.288 88.6477 152.82 89.0401 153.212C89.4324 153.604 89.9639 153.826 90.5188 153.828H180.755C181.311 153.828 181.843 153.607 182.236 153.214C182.629 152.822 182.85 152.289 182.85 151.733V12.1026C182.851 11.8269 182.797 11.5537 182.693 11.2987C182.588 11.0437 182.434 10.8118 182.239 10.6165C182.044 10.4212 181.813 10.2662 181.559 10.1604C181.304 10.0547 181.031 10.0002 180.755 10.0002H90.495C89.9429 10.0086 89.4163 10.2338 89.0288 10.6271C88.6414 11.0205 88.4243 11.5505 88.4243 12.1026ZM89.3763 12.1026C89.3753 11.9519 89.4041 11.8025 89.461 11.663C89.518 11.5235 89.6019 11.3966 89.7081 11.2897C89.8143 11.1828 89.9406 11.0979 90.0797 11.04C90.2189 10.9821 90.3681 10.9523 90.5188 10.9523H180.755C180.906 10.9523 181.055 10.9821 181.194 11.04C181.333 11.0979 181.46 11.1828 181.566 11.2897C181.672 11.3966 181.756 11.5235 181.813 11.663C181.87 11.8025 181.899 11.9519 181.898 12.1026V151.733C181.896 152.036 181.775 152.325 181.561 152.539C181.347 152.753 181.058 152.874 180.755 152.876H90.495C90.1926 152.874 89.9033 152.753 89.6895 152.539C89.4757 152.325 89.3546 152.036 89.3525 151.733L89.3763 12.1026Z" fill="#231F20"/>
<path d="M63.5845 33.5074V77.0548C63.5847 77.3028 63.6558 77.5457 63.7895 77.7547C63.9232 77.9637 64.1138 78.1301 64.339 78.2344C64.5641 78.3386 64.8143 78.3763 65.0602 78.343C65.306 78.3097 65.5372 78.2068 65.7265 78.0464L75.0643 70.1129C75.6911 69.5946 76.4804 69.3137 77.2937 69.3195H158.049C158.664 69.3195 159.253 69.0755 159.688 68.641C160.122 68.2066 160.366 67.6173 160.366 67.0029V33.5074C160.366 32.8923 160.122 32.3022 159.688 31.8665C159.254 31.4308 158.665 31.185 158.049 31.1829H65.9011C65.2859 31.185 64.6967 31.4308 64.2625 31.8665C63.8283 32.3022 63.5845 32.8923 63.5845 33.5074Z" fill="white"/>
<path d="M64.1398 78.6573C63.8341 78.5192 63.5744 78.2963 63.3916 78.015C63.2088 77.7338 63.1105 77.406 63.1084 77.0706V33.5073C63.1084 32.766 63.4024 32.0548 63.9259 31.5298C64.4493 31.0049 65.1596 30.7089 65.901 30.7068H158.049C158.791 30.7089 159.501 31.0049 160.025 31.5298C160.548 32.0548 160.842 32.766 160.842 33.5073V67.0029C160.84 67.7429 160.545 68.452 160.022 68.9752C159.499 69.4985 158.789 69.7934 158.049 69.7955H77.3174C76.6119 69.7974 75.9294 70.0473 75.3896 70.5016L66.0518 78.4351C65.7342 78.7095 65.329 78.8614 64.9093 78.8636C64.6399 78.8584 64.3757 78.7876 64.1398 78.6573ZM65.901 31.6905C65.6586 31.6905 65.4186 31.7384 65.1948 31.8314C64.971 31.9244 64.7677 32.0607 64.5967 32.2324C64.4257 32.4042 64.2903 32.608 64.1983 32.8323C64.1062 33.0565 64.0594 33.2967 64.0604 33.5391V77.0864C64.0476 77.2488 64.085 77.4111 64.1676 77.5514C64.2501 77.6918 64.3739 77.8033 64.5221 77.8709C64.6702 77.9385 64.8356 77.9588 64.9957 77.9292C65.1558 77.8995 65.3029 77.8214 65.4171 77.7052L74.7549 69.7717C75.4664 69.1746 76.3648 68.8461 77.2936 68.8435H158.049C158.538 68.8435 159.006 68.6495 159.351 68.3044C159.696 67.9592 159.89 67.491 159.89 67.0029V33.5073C159.884 33.0233 159.687 32.5612 159.343 32.2212C158.998 31.8812 158.533 31.6905 158.049 31.6905H65.901Z" fill="#231F20"/>
<path d="M141.016 60.6719C146.756 60.6719 151.409 56.0188 151.409 50.279C151.409 44.5391 146.756 39.886 141.016 39.886C135.276 39.886 130.623 44.5391 130.623 50.279C130.623 56.0188 135.276 60.6719 141.016 60.6719Z" fill="#7373EF"/>
<path d="M141.016 57.6652C141.956 57.6664 142.887 57.482 143.756 57.1226C144.625 56.7632 145.414 56.2358 146.078 55.5707C146.242 55.3891 146.329 55.1516 146.322 54.9073C146.316 54.663 146.215 54.4306 146.042 54.2583C145.868 54.086 145.636 53.987 145.391 53.9817C145.147 53.9764 144.91 54.0653 144.729 54.2299C143.742 55.2129 142.406 55.7648 141.012 55.7648C139.619 55.7648 138.283 55.2129 137.295 54.2299C137.113 54.078 136.88 53.9998 136.643 54.0106C136.406 54.0214 136.181 54.1205 136.013 54.2884C135.845 54.4564 135.746 54.681 135.735 54.9182C135.725 55.1555 135.803 55.3882 135.955 55.5707C136.619 56.2358 137.408 56.7632 138.277 57.1226C139.145 57.482 140.076 57.6664 141.016 57.6652Z" fill="#231F20"/>
<path d="M99.2299 60.6719H120.365C121.031 60.6719 121.571 60.132 121.571 59.466V58.99C121.571 58.324 121.031 57.7841 120.365 57.7841H99.2299C98.5639 57.7841 98.024 58.324 98.024 58.99V59.466C98.024 60.132 98.5639 60.6719 99.2299 60.6719Z" fill="#231F20"/>
<path d="M75.683 51.7227L120.365 51.7227C121.031 51.7227 121.571 51.1828 121.571 50.5168V50.0407C121.571 49.3747 121.031 48.8348 120.365 48.8348L75.683 48.8348C75.017 48.8348 74.4771 49.3747 74.4771 50.0407V50.5168C74.4771 51.1828 75.017 51.7227 75.683 51.7227Z" fill="#231F20"/>
<path d="M75.683 42.7656L120.365 42.7656C121.031 42.7656 121.571 42.2257 121.571 41.5597V41.0837C121.571 40.4177 121.031 39.8778 120.365 39.8778L75.683 39.8778C75.017 39.8778 74.4771 40.4177 74.4771 41.0837V41.5597C74.4771 42.2257 75.017 42.7656 75.683 42.7656Z" fill="#231F20"/>
<path d="M207.896 93.3899V136.937C207.896 137.185 207.825 137.428 207.691 137.637C207.557 137.846 207.367 138.013 207.141 138.117C206.916 138.221 206.666 138.259 206.42 138.225C206.174 138.192 205.943 138.089 205.754 137.929L196.416 129.995C195.789 129.477 195 129.196 194.187 129.202H113.431C113.127 129.203 112.826 129.144 112.545 129.029C112.264 128.913 112.008 128.743 111.793 128.529C111.578 128.314 111.407 128.059 111.291 127.779C111.174 127.498 111.114 127.197 111.114 126.893V93.3899C111.113 93.0853 111.172 92.7836 111.288 92.5021C111.405 92.2206 111.575 91.9648 111.79 91.7494C112.006 91.5341 112.262 91.3635 112.543 91.2475C112.825 91.1314 113.126 91.0722 113.431 91.0733H205.579C206.194 91.0733 206.783 91.3173 207.217 91.7518C207.652 92.1862 207.896 92.7755 207.896 93.3899Z" fill="white"/>
<path d="M206.587 138.714C206.17 138.715 205.766 138.562 205.453 138.286L196.107 130.352C195.571 129.897 194.891 129.647 194.187 129.646H113.431C112.698 129.644 111.995 129.355 111.473 128.84C110.951 128.325 110.651 127.626 110.639 126.893V93.3898C110.641 92.6498 110.936 91.9407 111.459 91.4174C111.982 90.8942 112.691 90.5993 113.431 90.5972H205.58C206.32 90.5993 207.029 90.8942 207.552 91.4174C208.075 91.9407 208.37 92.6498 208.372 93.3898V136.937C208.369 137.272 208.271 137.6 208.088 137.881C207.905 138.162 207.646 138.385 207.341 138.524C207.107 138.642 206.849 138.707 206.587 138.714ZM113.431 91.5413C112.942 91.5434 112.473 91.7388 112.126 92.085C111.78 92.4312 111.585 92.9002 111.583 93.3898V126.893C111.585 127.383 111.78 127.852 112.126 128.198C112.473 128.544 112.942 128.74 113.431 128.742H194.187C195.117 128.74 196.017 129.069 196.726 129.67L206.064 137.604C206.178 137.72 206.326 137.799 206.487 137.828C206.648 137.858 206.814 137.837 206.963 137.768C207.111 137.7 207.235 137.587 207.317 137.445C207.399 137.303 207.435 137.14 207.42 136.977V93.3898C207.42 92.9009 207.227 92.4319 206.882 92.0855C206.537 91.739 206.069 91.5434 205.58 91.5413H113.431Z" fill="#231F20"/>
<path d="M130.464 120.555C136.204 120.555 140.857 115.901 140.857 110.162C140.857 104.422 136.204 99.7686 130.464 99.7686C124.724 99.7686 120.071 104.422 120.071 110.162C120.071 115.901 124.724 120.555 130.464 120.555Z" fill="#7373EF"/>
<path d="M130.472 117.548C129.533 117.55 128.602 117.367 127.734 117.009C126.865 116.651 126.076 116.125 125.411 115.461C125.235 115.28 125.137 115.038 125.137 114.787C125.137 114.535 125.235 114.293 125.411 114.112C125.499 114.024 125.604 113.953 125.72 113.905C125.836 113.857 125.96 113.832 126.085 113.832C126.21 113.832 126.335 113.857 126.45 113.905C126.566 113.953 126.671 114.024 126.759 114.112C127.745 115.095 129.081 115.646 130.472 115.646C131.864 115.646 133.199 115.095 134.185 114.112C134.364 113.933 134.607 113.833 134.86 113.833C135.113 113.833 135.355 113.933 135.534 114.112C135.713 114.291 135.813 114.534 135.813 114.787C135.813 115.04 135.713 115.282 135.534 115.461C134.869 116.125 134.08 116.651 133.211 117.009C132.343 117.367 131.412 117.55 130.472 117.548Z" fill="#231F20"/>
<path d="M172.251 117.667H151.116C150.45 117.667 149.91 118.206 149.91 118.872V119.348C149.91 120.014 150.45 120.554 151.116 120.554H172.251C172.917 120.554 173.456 120.014 173.456 119.348V118.872C173.456 118.206 172.917 117.667 172.251 117.667Z" fill="#231F20"/>
<path d="M195.797 108.718H151.116C150.45 108.718 149.91 109.258 149.91 109.924V110.4C149.91 111.066 150.45 111.606 151.116 111.606H195.797C196.463 111.606 197.003 111.066 197.003 110.4V109.924C197.003 109.258 196.463 108.718 195.797 108.718Z" fill="#231F20"/>
<path d="M195.797 99.7607H151.116C150.45 99.7607 149.91 100.301 149.91 100.967V101.443C149.91 102.109 150.45 102.649 151.116 102.649H195.797C196.463 102.649 197.003 102.109 197.003 101.443V100.967C197.003 100.301 196.463 99.7607 195.797 99.7607Z" fill="#231F20"/>
<path d="M238.877 238.741L238.408 248.872L231.927 248.007L232.871 236.091L238.877 238.741Z" fill="white"/>
<path d="M238.369 249.3L231.895 248.443C231.785 248.428 231.684 248.371 231.613 248.284C231.543 248.197 231.507 248.087 231.515 247.975L232.459 236.075C232.466 236.005 232.489 235.938 232.526 235.879C232.563 235.82 232.613 235.77 232.673 235.734C232.735 235.701 232.805 235.683 232.875 235.683C232.946 235.683 233.015 235.701 233.077 235.734L239.083 238.384C239.164 238.419 239.231 238.479 239.276 238.554C239.322 238.629 239.343 238.717 239.337 238.804L238.869 248.935C238.863 249.048 238.815 249.153 238.734 249.232C238.653 249.31 238.545 249.354 238.433 249.356L238.369 249.3ZM233.292 236.741L232.427 247.626L237.98 248.372L238.417 239.018L233.292 236.741Z" fill="#231F20"/>
<path d="M280.956 240.788L282.107 247.079H276.442L275.157 239.336L280.956 240.788Z" fill="white"/>
<path d="M276.006 247.151L274.729 239.399C274.717 239.328 274.724 239.255 274.748 239.186C274.771 239.118 274.812 239.057 274.866 239.008C274.919 238.959 274.984 238.924 275.054 238.907C275.124 238.889 275.198 238.89 275.268 238.908L281.068 240.359C281.149 240.381 281.223 240.426 281.28 240.488C281.337 240.549 281.377 240.626 281.393 240.708L282.535 247C282.548 247.063 282.547 247.128 282.532 247.191C282.516 247.253 282.487 247.311 282.445 247.361C282.404 247.41 282.352 247.45 282.294 247.477C282.235 247.504 282.171 247.517 282.107 247.515H276.45C276.345 247.517 276.243 247.481 276.161 247.415C276.08 247.348 276.025 247.254 276.006 247.151ZM280.576 241.137L275.705 239.915L276.815 246.635H281.575L280.576 241.137Z" fill="#231F20"/>
<path d="M274.681 247.103V253.83H297.196C297.156 253.481 297.01 253.152 296.777 252.888C296.545 252.625 296.237 252.438 295.895 252.355C291.113 251.16 286.608 249.047 282.63 246.135H275.657C275.528 246.13 275.4 246.152 275.28 246.199C275.16 246.246 275.051 246.317 274.96 246.408C274.869 246.499 274.797 246.607 274.749 246.727C274.701 246.846 274.678 246.974 274.681 247.103Z" fill="#231F20"/>
<path d="M216.56 254.037H239.757C239.702 251.768 239.654 249.499 239.599 247.222C239.59 246.966 239.483 246.723 239.3 246.544C239.117 246.365 238.871 246.264 238.615 246.262C236.044 246.262 233.466 246.198 230.903 246.159C230.647 246.158 230.398 246.245 230.197 246.405C228.531 247.738 226.734 248.899 224.834 249.872C222.62 251.001 220.279 251.864 217.861 252.442C217.499 252.529 217.176 252.732 216.941 253.02C216.706 253.308 216.572 253.665 216.56 254.037Z" fill="#231F20"/>
<path d="M274.681 253.83V255.076H297.212V254.013C297.22 253.952 297.22 253.891 297.212 253.83H274.681Z" fill="#231F20"/>
<path d="M216.56 254.037V255.1L239.789 255.362C239.789 254.925 239.789 254.481 239.789 254.037H216.56Z" fill="#231F20"/>
<path d="M282.638 242.129L274.07 175.693L267.684 113.113H232.855L231.181 182.992V241.01L240.329 242.311L246.136 180.739C247.601 169.489 249.071 158.239 250.547 146.989C253.424 158.736 256.307 170.486 259.195 182.238C263.897 202.263 268.599 222.287 273.3 242.311L282.638 242.129Z" fill="#231F20"/>
<path d="M244.121 55.7687C244.748 56.1495 246.009 56.5621 248.508 55.618L247.517 66.3997L255.823 69.1527L259.901 65.6857C258.545 60.0589 258.161 54.2418 258.766 48.4857C260.702 47.6923 261.94 46.2484 261.821 44.9156C261.806 44.6106 261.727 44.3121 261.591 44.039C261.454 43.7658 261.262 43.524 261.027 43.3289C260.708 43.1248 260.345 42.9972 259.968 42.9559C259.591 42.9146 259.21 42.9608 258.854 43.0909C258.441 41.3693 258.06 39.6398 257.624 37.9182L250.42 37.4184L243.224 36.7996C243.034 38.6084 242.812 41.1313 242.669 44.154C242.177 53.8012 243.209 55.2054 244.121 55.7687Z" fill="white"/>
<path d="M255.672 69.5656L247.381 66.8126C247.287 66.7825 247.206 66.7213 247.152 66.6392C247.097 66.5571 247.071 66.4588 247.08 66.3604L248.008 56.2848C246.286 56.8322 244.906 56.7925 243.89 56.1737C242.78 55.4835 241.725 53.992 242.185 44.1544C242.304 41.6712 242.494 39.188 242.748 36.7682C242.76 36.6537 242.817 36.5486 242.906 36.4758C242.995 36.403 243.11 36.3684 243.224 36.3795L250.412 36.9983L257.608 37.4902C257.702 37.4952 257.792 37.5314 257.864 37.5932C257.936 37.6549 257.985 37.7386 258.004 37.8313L259.139 42.5915C259.499 42.5151 259.872 42.5129 260.233 42.5852C260.595 42.6575 260.938 42.8027 261.241 43.0119C261.538 43.2396 261.783 43.5293 261.957 43.8608C262.131 44.1924 262.23 44.5579 262.249 44.9319C262.368 46.3996 261.138 47.9466 259.171 48.8431C258.877 51.7272 258.837 54.6314 259.052 57.5224C259.253 60.2578 259.677 62.9722 260.321 65.6385C260.34 65.7173 260.337 65.7999 260.312 65.877C260.286 65.954 260.24 66.0225 260.178 66.0748L256.1 69.5418C256.02 69.6093 255.919 69.6458 255.815 69.6449C255.763 69.6274 255.714 69.6005 255.672 69.5656ZM258.203 57.5304C257.987 54.5038 258.037 51.4642 258.353 48.4464C258.361 48.3667 258.39 48.2905 258.437 48.2261C258.485 48.1618 258.549 48.1117 258.623 48.0815C260.376 47.3516 261.495 46.0902 261.408 44.9081C261.397 44.6599 261.334 44.4168 261.221 44.1952C261.109 43.9736 260.951 43.7784 260.757 43.6228C260.495 43.4649 260.201 43.3672 259.896 43.3371C259.592 43.3069 259.284 43.3449 258.996 43.4483C258.94 43.474 258.879 43.4872 258.818 43.4872C258.756 43.4872 258.695 43.474 258.639 43.4483C258.585 43.4178 258.537 43.3768 258.499 43.3278C258.461 43.2788 258.433 43.2226 258.417 43.1627L257.259 38.2994L250.38 37.8234L243.573 37.2442C243.343 39.5132 243.176 41.8298 243.065 44.1464C242.645 53.0796 243.486 54.8409 244.351 55.3724C245.247 55.9278 246.588 55.8643 248.317 55.19C248.387 55.1634 248.461 55.1546 248.535 55.1643C248.608 55.174 248.678 55.2019 248.738 55.2455C248.796 55.2931 248.843 55.3539 248.873 55.4228C248.903 55.4918 248.917 55.567 248.912 55.6422L247.952 66.0748L255.68 68.6374L259.361 65.4639C258.768 62.8537 258.381 60.2011 258.203 57.5304Z" fill="#231F20"/>
<path d="M206.135 69.0575C206.041 68.2692 205.673 67.5389 205.096 66.9947C204.12 66.1459 202.938 66.3918 201.874 66.1538C200.692 65.8999 199.122 64.8923 197.662 61.3936C197.56 61.252 197.493 61.0883 197.467 60.9159C197.441 60.7435 197.456 60.5674 197.511 60.4019C197.608 60.2548 197.738 60.1328 197.891 60.0458C198.044 59.9589 198.216 59.9097 198.392 59.9021C199.439 59.7673 199.978 61.0208 201.343 61.8855C203.176 63.0597 205.635 63.4722 206.103 62.7423C206.571 62.0125 204.961 60.5527 205.31 60.2433C205.659 59.9339 208.777 61.7031 209.721 63.8768C209.816 64.099 210.102 64.7971 210.379 65.6778C210.593 66.3601 210.744 66.9392 210.839 67.3518L206.135 69.0575Z" fill="white"/>
<path d="M205.913 69.4386C205.856 69.4063 205.808 69.3617 205.771 69.3082C205.734 69.2547 205.709 69.1935 205.699 69.1292C205.626 68.4423 205.311 67.8038 204.81 67.3283C204.236 66.9136 203.542 66.699 202.835 66.7174C202.48 66.6988 202.127 66.6537 201.779 66.5825C200.01 66.2017 198.495 64.5198 197.273 61.5923C197.131 61.3917 197.042 61.1586 197.015 60.9145C196.987 60.6704 197.021 60.4233 197.114 60.196C197.239 59.9797 197.417 59.7986 197.63 59.6696C197.844 59.5405 198.087 59.4678 198.336 59.4582C199.201 59.3471 199.772 59.9104 200.375 60.4975C200.742 60.8705 201.143 61.2079 201.573 61.5051C203.445 62.703 205.54 62.8141 205.762 62.4809C205.865 62.3301 205.413 61.6082 205.262 61.3702C204.921 60.8148 204.596 60.2992 204.992 59.9183C205.088 59.8335 205.204 59.775 205.33 59.7485C205.455 59.7221 205.585 59.7287 205.707 59.7676C207.625 60.4821 209.2 61.9005 210.11 63.7344C210.363 64.3387 210.586 64.9557 210.776 65.5829C210.959 66.1462 211.117 66.7174 211.252 67.2807C211.276 67.3857 211.261 67.4959 211.21 67.5908C211.159 67.6856 211.075 67.7587 210.974 67.7964L206.286 69.518C206.236 69.5256 206.185 69.5256 206.135 69.518C206.055 69.5128 205.978 69.4853 205.913 69.4386ZM209.943 65.8051C209.665 64.9324 209.388 64.2183 209.3 64.0438C208.552 62.6195 207.368 61.4715 205.921 60.7672L206.008 60.9021C206.413 61.5527 206.92 62.3619 206.476 62.9886C205.754 64.02 202.946 63.425 201.105 62.2429C200.619 61.923 200.169 61.5505 199.764 61.1322C199.185 60.5689 198.86 60.2754 198.447 60.3388C198.344 60.3363 198.241 60.358 198.148 60.4021C198.054 60.4461 197.972 60.5114 197.908 60.5927C197.885 60.687 197.884 60.7853 197.905 60.8801C197.925 60.9749 197.967 61.0638 198.027 61.1401C198.045 61.1668 198.058 61.1963 198.066 61.2274C199.177 63.8931 200.494 65.4084 201.97 65.7337C202.279 65.7953 202.591 65.8351 202.906 65.8527C203.797 65.8316 204.669 66.1111 205.381 66.646C205.919 67.1228 206.296 67.7548 206.46 68.4549L210.3 67.0506C210.2 66.6434 210.081 66.2282 209.943 65.8051Z" fill="#231F20"/>
<path d="M205.786 68.5975L213.378 100.126C213.519 100.683 213.813 101.189 214.225 101.59C214.638 101.99 215.153 102.267 215.714 102.392C216.275 102.516 216.86 102.482 217.403 102.293C217.946 102.105 218.426 101.769 218.789 101.323L231.832 85.4564C232.371 91.4621 232.736 97.8169 232.855 104.497C232.855 104.909 232.855 105.29 232.855 105.735C232.855 106.179 232.855 106.798 232.855 107.321V110.495C232.855 111.026 232.855 111.558 232.855 112.081C232.855 113.049 232.855 114.009 232.807 114.961C244.338 117.727 256.346 117.847 267.929 115.31C267.755 114.049 267.604 112.692 267.477 111.248C267.429 110.685 267.39 110.106 267.35 109.511C267.295 108.63 267.255 107.726 267.223 106.79V106.631C267.223 106.012 267.223 105.401 267.223 104.806C267.223 102.482 267.295 100.395 267.422 98.6102L276.942 103.109C277.722 103.483 278.589 103.638 279.45 103.556C280.311 103.475 281.134 103.16 281.83 102.646C282.526 102.132 283.068 101.438 283.399 100.639C283.731 99.8402 283.838 98.9659 283.709 98.1104C282.249 89.6955 280.787 81.2754 279.322 72.8499C279.085 71.4924 278.545 70.2057 277.743 69.0851C276.941 67.9645 275.897 67.0386 274.689 66.3761L259.218 57.8713C259.052 59.0952 258.456 60.22 257.536 61.0448C256.49 61.9195 255.154 62.3697 253.792 62.3062C252.509 62.2875 251.267 61.8605 250.244 61.0872C249.221 60.3139 248.471 59.2347 248.103 58.0062L232.331 63.877C231.37 64.2508 230.558 64.9312 230.023 65.8128L218.646 84.5281C216.266 78.6467 213.886 72.7679 211.506 66.8918L205.786 68.5975ZM268.231 91.4462C268.58 89.2883 269.024 86.9399 269.675 84.4488C270.658 87.3472 271.645 90.2429 272.634 93.1361L268.231 91.4462Z" fill="#7373EF"/>
<path d="M242.066 39.2038C239.202 36.8237 238.694 35.1338 238.893 33.9517C239.186 32.1191 241.471 29.866 241.447 29.9056C244.319 27.4462 246.604 27.0178 248.151 27.0654C250.634 27.1527 250.92 28.4697 254.768 29.1757C257.997 29.7708 259.29 29.1123 260.702 30.3499C261.44 31.0005 261.805 31.9366 262.535 33.9121C263.264 35.8875 263.677 36.9506 263.518 38.0931C263.219 39.6972 262.379 41.1504 261.138 42.2106C260.311 42.7645 259.631 43.5103 259.155 44.3844C258.963 44.8015 258.838 45.2458 258.782 45.7014C258.285 44.494 257.975 43.2179 257.862 41.9171C257.827 41.3887 257.827 40.8587 257.862 40.3303C257.872 40.0807 257.791 39.8358 257.635 39.6406C257.48 39.4454 257.258 39.3128 257.013 39.2672C254.736 38.8309 249.762 40.5128 243.867 39.6243C243.26 39.5157 242.659 39.3753 242.066 39.2038Z" fill="#231F20"/>
<path d="M252.951 45.9076C252.856 46.582 252.467 47.0818 252.094 47.0262C251.721 46.9707 251.499 46.3836 251.602 45.7093C251.706 45.0349 252.086 44.5351 252.459 44.5906C252.832 44.6462 253.054 45.2333 252.951 45.9076Z" fill="#231F20"/>
<path d="M246.533 45.1142C246.43 45.7806 246.041 46.2883 245.668 46.2328C245.295 46.1773 245.073 45.5902 245.176 44.9158C245.279 44.2415 245.668 43.7417 246.041 43.7893C246.414 43.8369 246.636 44.4398 246.533 45.1142Z" fill="#231F20"/>
<path d="M246.675 51.0881C248.047 51.4179 249.447 51.6171 250.856 51.6832C250.781 51.945 250.654 52.1889 250.483 52.4002C250.311 52.6115 250.098 52.7858 249.857 52.9126C249.616 53.0394 249.352 53.1161 249.08 53.1379C248.809 53.1598 248.536 53.1264 248.278 53.0398C247.831 52.9406 247.43 52.6944 247.14 52.3406C246.849 51.9868 246.686 51.5458 246.675 51.0881Z" fill="#231F20"/>
<path d="M254.744 44.3128C254.817 44.3111 254.888 44.2891 254.95 44.2493C254.99 44.2237 255.025 44.1902 255.052 44.1508C255.078 44.1113 255.097 44.0668 255.106 44.02C255.115 43.9732 255.114 43.925 255.103 43.8785C255.093 43.832 255.073 43.7881 255.045 43.7495C254.657 43.1867 254.114 42.7495 253.481 42.4915C252.848 42.2336 252.154 42.1662 251.483 42.2976C251.437 42.3096 251.394 42.3305 251.356 42.3591C251.319 42.3877 251.287 42.4235 251.263 42.4644C251.239 42.5053 251.223 42.5505 251.217 42.5974C251.21 42.6444 251.213 42.6921 251.225 42.738C251.237 42.7838 251.258 42.8268 251.287 42.8646C251.315 42.9024 251.351 42.9341 251.392 42.9581C251.433 42.982 251.478 42.9977 251.525 43.0041C251.572 43.0106 251.62 43.0078 251.665 42.9958C252.191 42.9017 252.732 42.9609 253.224 43.1663C253.717 43.3717 254.14 43.7147 254.442 44.1541C254.476 44.2031 254.521 44.2431 254.573 44.2708C254.626 44.2984 254.684 44.3128 254.744 44.3128Z" fill="#231F20"/>
<path d="M247.984 42.9242C248.035 42.9248 248.085 42.9144 248.132 42.8939C248.178 42.8734 248.22 42.8431 248.254 42.8052C248.288 42.7726 248.316 42.7332 248.335 42.6896C248.354 42.6459 248.363 42.5989 248.363 42.5514C248.363 42.5038 248.354 42.4568 248.335 42.4131C248.316 42.3695 248.288 42.3301 248.254 42.2975C246.58 40.8377 244.501 41.9484 244.414 41.996C244.371 42.0167 244.333 42.0462 244.303 42.0824C244.272 42.1186 244.249 42.1609 244.236 42.2064C244.222 42.252 244.218 42.2998 244.225 42.3469C244.231 42.394 244.247 42.4393 244.271 42.48C244.32 42.5641 244.399 42.6261 244.492 42.6528C244.585 42.6795 244.685 42.6687 244.771 42.6228C245.238 42.3658 245.77 42.2494 246.302 42.2874C246.834 42.3254 247.344 42.5162 247.77 42.837C247.831 42.8863 247.906 42.9166 247.984 42.9242Z" fill="#231F20"/>
<path d="M249.182 49.8741C249.257 49.8739 249.329 49.851 249.39 49.8085C249.451 49.7659 249.497 49.7058 249.523 49.6361C249.54 49.5914 249.547 49.5438 249.544 49.4963C249.542 49.4487 249.53 49.4021 249.509 49.3592C249.488 49.3164 249.459 49.2781 249.424 49.2466C249.388 49.2151 249.346 49.1911 249.301 49.176L247.445 48.5333C249.262 45.5265 249.285 45.4551 249.301 45.4075C249.316 45.3627 249.322 45.3154 249.318 45.2684C249.315 45.2214 249.302 45.1755 249.28 45.1334C249.259 45.0914 249.23 45.054 249.194 45.0234C249.158 44.9928 249.116 44.9697 249.071 44.9553C248.986 44.9252 248.892 44.928 248.808 44.9632C248.725 44.9984 248.657 45.0634 248.619 45.1457C248.516 45.3361 247.35 47.2798 246.588 48.5492C246.564 48.5973 246.552 48.6503 246.552 48.7039C246.552 48.7576 246.564 48.8105 246.588 48.8586C246.609 48.9074 246.639 48.9514 246.677 48.9882C246.715 49.025 246.761 49.0538 246.81 49.0728L249.087 49.8662C249.118 49.8735 249.15 49.8762 249.182 49.8741Z" fill="#231F20"/>
<path d="M251.665 73.7384L254.744 94.1673C254.756 94.2535 254.75 94.3414 254.725 94.4249C254.701 94.5085 254.658 94.5857 254.601 94.6513C254.544 94.7169 254.473 94.7693 254.393 94.8049C254.314 94.8405 254.228 94.8584 254.141 94.8575H238.464C238.318 94.8574 238.178 94.8054 238.067 94.7109C237.957 94.6164 237.884 94.4855 237.861 94.3419L234.783 73.9129C234.77 73.8267 234.776 73.7388 234.801 73.6553C234.826 73.5717 234.868 73.4945 234.925 73.4289C234.983 73.3633 235.053 73.3109 235.133 73.2753C235.212 73.2397 235.299 73.2218 235.386 73.2227H251.062C251.208 73.2228 251.348 73.2748 251.459 73.3693C251.57 73.4639 251.643 73.5947 251.665 73.7384Z" fill="white"/>
<path d="M237.425 94.4055L234.355 73.9686C234.336 73.8271 234.348 73.6833 234.389 73.5466C234.43 73.4099 234.499 73.2834 234.593 73.1753C234.69 73.0605 234.812 72.9684 234.949 72.9054C235.086 72.8424 235.235 72.8099 235.386 72.8103H251.063C251.312 72.809 251.554 72.8971 251.745 73.0586C251.936 73.22 252.062 73.4443 252.102 73.6909L255.18 94.1199C255.202 94.2684 255.191 94.42 255.149 94.564C255.107 94.7081 255.033 94.8412 254.935 94.9543C254.836 95.0674 254.714 95.1578 254.577 95.2192C254.44 95.2805 254.291 95.3115 254.141 95.3099H238.464C238.211 95.3104 237.966 95.219 237.775 95.0527C237.584 94.8864 237.459 94.6565 237.425 94.4055ZM251.237 73.7782C251.228 73.7391 251.206 73.7043 251.174 73.6797C251.142 73.6551 251.103 73.6423 251.063 73.6433H235.386C235.362 73.6418 235.338 73.646 235.316 73.6557C235.294 73.6653 235.274 73.6801 235.259 73.6989C235.243 73.7152 235.23 73.7353 235.224 73.7574C235.217 73.7796 235.215 73.803 235.219 73.8258L238.298 94.2548C238.305 94.2932 238.326 94.3279 238.356 94.3525C238.387 94.3772 238.425 94.3903 238.464 94.3896H254.141C254.166 94.3901 254.191 94.3855 254.214 94.3759C254.237 94.3664 254.258 94.3521 254.276 94.3341C254.29 94.2958 254.29 94.2534 254.276 94.2151L251.205 73.7782H251.237Z" fill="#231F20"/>
<path d="M243.914 85.6627C244.83 85.6627 245.573 84.9345 245.573 84.0363C245.573 83.1381 244.83 82.4099 243.914 82.4099C242.999 82.4099 242.256 83.1381 242.256 84.0363C242.256 84.9345 242.999 85.6627 243.914 85.6627Z" fill="white"/>
<path d="M241.82 84.0522C241.814 83.6367 241.931 83.2287 242.157 82.8801C242.384 82.5315 242.709 82.2581 243.091 82.0947C243.473 81.9313 243.895 81.8853 244.303 81.9625C244.712 82.0397 245.088 82.2366 245.384 82.5282C245.68 82.8198 245.883 83.1929 245.966 83.6001C246.05 84.0072 246.01 84.4299 245.852 84.8145C245.695 85.1991 245.426 85.5281 245.081 85.7596C244.736 85.9912 244.33 86.1149 243.915 86.115C243.364 86.1171 242.835 85.9014 242.442 85.5151C242.05 85.1287 241.826 84.6028 241.82 84.0522ZM242.701 84.0522C242.696 84.2933 242.763 84.5302 242.894 84.733C243.024 84.9357 243.212 85.0949 243.433 85.1905C243.655 85.286 243.899 85.3135 244.136 85.2694C244.373 85.2252 244.592 85.1116 244.764 84.9428C244.936 84.774 245.054 84.5578 245.103 84.3217C245.152 84.0856 245.129 83.8404 245.038 83.6172C244.947 83.394 244.791 83.203 244.591 83.0685C244.391 82.9341 244.156 82.8622 243.915 82.8622C243.596 82.8601 243.29 82.984 243.062 83.207C242.835 83.4299 242.705 83.7338 242.701 84.0522Z" fill="#231F20"/>
<path d="M257.656 88.3759C256.112 88.0634 254.749 87.1684 253.848 85.8768C253.743 85.7338 253.609 85.6151 253.454 85.5289C253.299 85.4426 253.128 85.3908 252.951 85.377C251.697 85.3055 250.486 84.8971 249.444 84.1949C247.794 83.4015 247.572 82.148 246.43 82.2353C246.076 82.2673 245.74 82.4087 245.47 82.6399C244.581 83.4332 244.97 85.02 245.137 85.7578C245.495 87.1388 246.241 88.3886 247.287 89.3596C248.148 90.1951 249.164 90.8553 250.278 91.3033C250.59 91.4252 250.927 91.474 251.261 91.4462C251.705 91.4098 252.151 91.4098 252.594 91.4462C253.751 91.5263 254.88 91.8336 255.918 92.3506L257.656 88.3759Z" fill="white"/>
<path d="M255.719 92.7312C254.731 92.2325 253.651 91.9384 252.546 91.8665C252.126 91.8308 251.704 91.8308 251.285 91.8665C250.882 91.9041 250.477 91.8443 250.102 91.6919C248.918 91.2331 247.839 90.5395 246.929 89.653C245.827 88.6215 245.04 87.2982 244.66 85.837C244.478 85.0436 244.041 83.2665 245.128 82.2986C245.469 81.9999 245.898 81.8191 246.35 81.7829C246.695 81.7782 247.036 81.8556 247.345 82.0087C247.654 82.1619 247.922 82.3863 248.127 82.6635C248.548 83.1184 249.045 83.4969 249.595 83.7822L250.253 84.1313C251.065 84.6268 251.992 84.9004 252.943 84.9246C253.199 84.9344 253.45 85.004 253.674 85.128C253.899 85.252 254.091 85.4269 254.236 85.6386C254.713 86.3245 255.336 86.8962 256.061 87.3126C256.59 87.6165 257.167 87.831 257.766 87.9473C257.83 87.9625 257.889 87.9908 257.941 88.0304C257.993 88.0701 258.036 88.1201 258.068 88.1774C258.095 88.237 258.11 88.302 258.11 88.3678C258.11 88.4336 258.095 88.4985 258.068 88.5582L256.338 92.525C256.314 92.5797 256.279 92.629 256.236 92.6699C256.192 92.7108 256.141 92.7424 256.084 92.763C256.035 92.7742 255.983 92.7742 255.934 92.763C255.861 92.7699 255.787 92.759 255.719 92.7312ZM255.6 88.0663C254.761 87.5869 254.04 86.9254 253.49 86.1305C253.423 86.0401 253.337 85.965 253.239 85.9103C253.14 85.8556 253.031 85.8225 252.919 85.8132C251.845 85.7864 250.797 85.4772 249.88 84.9167L249.246 84.5835C248.614 84.2563 248.043 83.8244 247.556 83.3062C247.096 82.846 246.866 82.6397 246.461 82.6715C246.205 82.7002 245.962 82.8021 245.763 82.965C245.073 83.5838 245.414 85.0357 245.564 85.6545C245.905 86.9539 246.61 88.1291 247.595 89.0421C248.411 89.843 249.38 90.4716 250.444 90.8907C250.694 90.9956 250.967 91.0365 251.237 91.0097C252.767 90.8619 254.31 91.1162 255.711 91.7475L257.052 88.6772C256.546 88.531 256.059 88.3259 255.6 88.0663Z" fill="#231F20"/>
<path d="M259.504 57.9191L260.662 58.4507C260.758 58.4927 260.833 58.5697 260.873 58.6657C260.913 58.7617 260.914 58.8694 260.877 58.9664C260.287 60.4346 259.269 61.6908 257.954 62.571C256.64 63.4511 255.09 63.9141 253.508 63.8995C251.926 63.885 250.385 63.3935 249.087 62.4893C247.789 61.5851 246.794 60.3103 246.231 58.8315C246.213 58.7816 246.204 58.7284 246.206 58.6751C246.209 58.6218 246.222 58.5695 246.245 58.5214C246.268 58.4732 246.3 58.4302 246.34 58.3949C246.38 58.3596 246.427 58.3327 246.477 58.3158L247.517 57.9509C247.736 57.8761 247.976 57.885 248.19 57.9757C248.403 58.0664 248.576 58.2327 248.675 58.4428C249.115 59.3344 249.796 60.085 250.641 60.6099C251.486 61.1348 252.46 61.4129 253.455 61.4129C254.449 61.4129 255.424 61.1348 256.269 60.6099C257.113 60.085 257.794 59.3344 258.235 58.4428C258.283 58.3248 258.355 58.2176 258.445 58.1273C258.535 58.0371 258.643 57.9656 258.761 57.9169C258.879 57.8682 259.005 57.8434 259.133 57.8438C259.26 57.8441 259.387 57.8698 259.504 57.9191Z" fill="#97BCFF"/>
<path d="M258.092 87.5825L261.011 88.6932L258.251 94.2467L255.498 92.9773L258.092 87.5825Z" fill="#97BCFF"/>
<path d="M211.569 66.7251C211.91 67.6613 212.252 68.5895 212.601 69.5256L206.539 71.3583L205.746 68.6529L211.569 66.7251Z" fill="#97BCFF"/>
<path d="M232.871 112.089C233.67 112.043 234.438 111.768 235.085 111.296C235.544 110.957 236.1 110.774 236.671 110.774C237.242 110.774 237.798 110.957 238.258 111.296C238.981 111.792 239.837 112.057 240.713 112.057C241.59 112.057 242.446 111.792 243.169 111.296C243.629 110.959 244.185 110.778 244.756 110.778C245.326 110.778 245.882 110.959 246.342 111.296C247.065 111.792 247.921 112.057 248.798 112.057C249.674 112.057 250.53 111.792 251.253 111.296C251.713 110.957 252.269 110.774 252.84 110.774C253.411 110.774 253.967 110.957 254.427 111.296C255.149 111.792 256.005 112.057 256.882 112.057C257.759 112.057 258.615 111.792 259.337 111.296C259.798 110.959 260.354 110.778 260.924 110.778C261.495 110.778 262.05 110.959 262.511 111.296C263.222 111.815 264.081 112.093 264.962 112.089C265.845 112.091 266.706 111.813 267.422 111.296L267.541 111.217C267.493 110.653 267.454 110.074 267.414 109.479C267.109 109.611 266.817 109.771 266.541 109.955C266.08 110.289 265.524 110.469 264.954 110.469C264.385 110.469 263.829 110.289 263.368 109.955C262.645 109.459 261.789 109.194 260.912 109.194C260.036 109.194 259.18 109.459 258.457 109.955C257.995 110.289 257.44 110.469 256.87 110.469C256.3 110.469 255.745 110.289 255.283 109.955C254.559 109.459 253.702 109.194 252.824 109.194C251.946 109.194 251.089 109.459 250.365 109.955C249.903 110.289 249.348 110.469 248.778 110.469C248.208 110.469 247.653 110.289 247.191 109.955C246.468 109.459 245.612 109.194 244.736 109.194C243.859 109.194 243.003 109.459 242.28 109.955C241.818 110.287 241.263 110.466 240.694 110.466C240.124 110.466 239.569 110.287 239.107 109.955C238.397 109.433 237.537 109.154 236.655 109.162C235.772 109.156 234.91 109.434 234.196 109.955C233.813 110.243 233.356 110.416 232.879 110.455C232.879 111.026 232.879 111.558 232.871 112.089Z" fill="#97BCFF"/>
<path d="M232.871 105.719C232.871 106.25 232.871 106.782 232.871 107.305C233.66 107.266 234.422 107.005 235.069 106.552C235.528 106.213 236.084 106.03 236.655 106.03C237.226 106.03 237.782 106.213 238.242 106.552C238.965 107.048 239.821 107.313 240.698 107.313C241.574 107.313 242.43 107.048 243.153 106.552C243.614 106.215 244.169 106.034 244.74 106.034C245.31 106.034 245.866 106.215 246.326 106.552C247.049 107.048 247.905 107.313 248.782 107.313C249.658 107.313 250.515 107.048 251.237 106.552C251.697 106.213 252.253 106.03 252.824 106.03C253.395 106.03 253.951 106.213 254.411 106.552C255.134 107.048 255.99 107.313 256.866 107.313C257.743 107.313 258.599 107.048 259.322 106.552C259.782 106.215 260.338 106.034 260.908 106.034C261.479 106.034 262.034 106.215 262.495 106.552C263.207 107.071 264.066 107.349 264.947 107.345C265.771 107.364 266.581 107.125 267.263 106.663C267.263 106.044 267.263 105.433 267.263 104.838C267.015 104.954 266.776 105.09 266.549 105.243C266.088 105.577 265.532 105.757 264.962 105.757C264.393 105.757 263.837 105.577 263.376 105.243C262.653 104.747 261.797 104.481 260.92 104.481C260.044 104.481 259.188 104.747 258.465 105.243C258.003 105.577 257.448 105.757 256.878 105.757C256.308 105.757 255.753 105.577 255.291 105.243C254.567 104.747 253.71 104.482 252.832 104.482C251.954 104.482 251.097 104.747 250.373 105.243C249.911 105.577 249.356 105.757 248.786 105.757C248.216 105.757 247.661 105.577 247.199 105.243C246.476 104.747 245.62 104.481 244.744 104.481C243.867 104.481 243.011 104.747 242.288 105.243C241.826 105.575 241.271 105.753 240.702 105.753C240.132 105.753 239.577 105.575 239.115 105.243C238.405 104.72 237.545 104.442 236.663 104.449C235.78 104.444 234.918 104.722 234.204 105.243C233.815 105.527 233.352 105.692 232.871 105.719Z" fill="#97BCFF"/>
<path d="M267.112 98.388L257.957 94.0325" stroke="#231F20" stroke-width="0.793357" stroke-miterlimit="10" stroke-linecap="round"/>
<path d="M268.231 91.4461L261.011 88.6931" stroke="#231F20" stroke-width="0.793357" stroke-miterlimit="10" stroke-linecap="round"/>
<path d="M269.675 84.4489L268.541 79.8315" stroke="#231F20" stroke-width="0.793357" stroke-miterlimit="10" stroke-linecap="round"/>
<path d="M231.832 85.4323L234.339 82.2351" stroke="#231F20" stroke-width="0.793357" stroke-miterlimit="10" stroke-linecap="round"/>
<path d="M24.1626 216.289C25.3994 216.839 26.5837 217.5 27.701 218.264C32.112 221.319 32.6912 224.222 36.7928 226.118C38.0699 226.699 39.4297 227.076 40.8231 227.237C43.1347 227.485 45.4717 227.153 47.6222 226.269C47.6222 226.269 51.2081 217.479 34.9285 213.52L34.3572 216.194L33.0482 214.051C31.9004 213.762 30.7094 213.684 29.5336 213.821C27.5361 214.086 25.6644 214.945 24.1626 216.289Z" fill="#7373EF"/>
<path d="M29.4306 185.895C30.4002 189.004 32.1737 191.801 34.5715 194.003C37.0785 196.241 38.7922 196.383 42.5051 199.62C44.5043 201.374 45.8292 202.564 46.8368 204.555C48.0545 207.07 48.4487 209.904 47.9634 212.655C43.0313 212.123 38.3529 210.197 34.4763 207.102L36.063 203.96L33.0879 205.729C31.1697 202.842 29.8566 199.596 29.228 196.187C28.5994 192.778 28.6683 189.277 29.4306 185.895Z" fill="#7373EF"/>
<path d="M52.1282 199.541C39.9185 196.875 35.3646 184.229 35.3646 184.229C35.7295 183.555 41.1244 181.944 41.1244 181.944L33.9841 180.953C33.9841 180.953 32.6513 178.993 33.3812 174.693C34.1111 170.393 31.1836 164.443 31.1836 164.443C35.2212 165.343 39.0959 166.861 42.6714 168.941C46.4557 171.147 52.1917 174.495 54.5083 180.961C54.8799 182.013 55.1456 183.1 55.3016 184.205L52.8581 187.625L55.5238 186.34C55.6165 190.967 54.4424 195.532 52.1282 199.541Z" fill="#7373EF"/>
<path d="M62.9257 206.316C62.9257 206.316 52.4376 186.76 79.5386 179.469C79.5386 179.469 76.5397 182.809 77.0396 189.322C77.5394 195.836 75.5798 196.907 75.5798 196.907L70.5182 196.233L74.6833 200.041C74.6833 200.041 69.2647 207.213 62.9257 206.316Z" fill="#7373EF"/>
<path d="M80.3082 212.822C80.3082 212.822 62.061 206.658 62.767 222.707C62.767 222.707 68.5506 227.919 73.9851 220.01L72.5571 216.987L75.072 217.503C75.072 217.503 78.4517 213.322 80.3082 212.822Z" fill="#7373EF"/>
<path d="M56.0794 238.543C55.9901 238.531 55.9091 238.484 55.8542 238.413C55.7992 238.341 55.7746 238.251 55.7859 238.162C58.515 219.454 73.7713 214.361 73.93 214.361C74.0152 214.336 74.1068 214.345 74.1853 214.387C74.2638 214.428 74.323 214.499 74.3504 214.583C74.3639 214.625 74.3688 214.67 74.3649 214.714C74.3609 214.758 74.3483 214.801 74.3276 214.84C74.3069 214.879 74.2786 214.914 74.2444 214.942C74.2102 214.97 74.1707 214.991 74.1283 215.004C73.9855 215.051 59.118 220.01 56.4602 238.289C56.438 238.37 56.3872 238.44 56.3172 238.487C56.2473 238.533 56.1628 238.553 56.0794 238.543Z" fill="#231F20"/>
<path d="M55.762 242.152C55.6743 242.144 55.5932 242.102 55.5355 242.036C55.4778 241.969 55.4481 241.883 55.4526 241.795C56.4615 223.193 61.7474 205.074 70.8992 188.847C70.9496 188.782 71.0215 188.738 71.1018 188.722C71.1821 188.706 71.2655 188.719 71.3367 188.76C71.4079 188.8 71.4622 188.865 71.4897 188.942C71.5172 189.019 71.516 189.103 71.4863 189.18C62.3788 205.314 57.1223 223.334 56.1269 241.835C56.1249 241.879 56.114 241.923 56.0949 241.963C56.0757 242.003 56.0487 242.039 56.0154 242.069C55.9822 242.098 55.9433 242.121 55.9011 242.135C55.8589 242.15 55.8143 242.155 55.7699 242.152H55.762Z" fill="#231F20"/>
<path d="M54.9926 249.562C54.9486 249.555 54.9064 249.54 54.8684 249.517C54.8305 249.493 54.7976 249.463 54.7717 249.426C54.7458 249.39 54.7275 249.349 54.7177 249.306C54.708 249.262 54.707 249.217 54.715 249.173C56.9032 235.369 56.5537 221.281 53.6836 207.601C51.848 198.928 49.0126 190.496 45.2343 182.476C45.2087 182.435 45.1919 182.389 45.1851 182.342C45.1783 182.294 45.1816 182.246 45.1949 182.199C45.2082 182.153 45.2311 182.11 45.2622 182.074C45.2932 182.037 45.3317 182.007 45.375 181.986C45.4184 181.965 45.4657 181.954 45.5138 181.953C45.5619 181.951 45.6097 181.96 45.6541 181.979C45.6985 181.997 45.7385 182.025 45.7714 182.06C45.8044 182.095 45.8295 182.137 45.8452 182.182C49.6344 190.252 52.4751 198.734 54.3104 207.459C57.1989 221.221 57.5511 235.395 55.3496 249.284C55.3343 249.366 55.2895 249.44 55.2238 249.491C55.158 249.542 55.0758 249.567 54.9926 249.562Z" fill="#231F20"/>
<path d="M55.6031 243.683C55.5161 243.677 55.435 243.637 55.3771 243.572C55.3193 243.507 55.2893 243.421 55.2937 243.334C55.492 234.433 54.0561 217.741 42.1002 205.943C40.1977 204.067 38.1113 202.387 35.8723 200.929C35.8353 200.906 35.8033 200.875 35.7781 200.84C35.7528 200.804 35.7349 200.763 35.7254 200.721C35.7158 200.678 35.7147 200.634 35.7222 200.591C35.7298 200.547 35.7457 200.506 35.7692 200.469C35.818 200.394 35.8944 200.341 35.9821 200.322C36.0697 200.302 36.1614 200.318 36.2373 200.366C38.5193 201.848 40.6457 203.557 42.5841 205.467C54.7145 217.439 56.1823 234.346 55.976 243.35C55.9749 243.395 55.9651 243.439 55.947 243.48C55.9289 243.521 55.9029 243.558 55.8705 243.589C55.8381 243.62 55.7999 243.644 55.7581 243.66C55.7163 243.677 55.6717 243.684 55.6269 243.683H55.6031Z" fill="#231F20"/>
<path d="M57.2853 243.826C57.2131 243.822 57.1443 243.794 57.0897 243.747C57.0351 243.7 56.9978 243.635 56.9838 243.564C55.8908 238.118 53.3813 233.056 49.7084 228.889C46.0355 224.721 41.3289 221.596 36.063 219.827C35.9794 219.797 35.9107 219.735 35.8708 219.655C35.831 219.576 35.8231 219.484 35.8488 219.399C35.881 219.316 35.9426 219.249 36.0218 219.209C36.1009 219.169 36.192 219.161 36.2772 219.184C41.6621 220.987 46.4771 224.176 50.2376 228.431C53.998 232.686 56.5711 237.856 57.6978 243.422C57.7167 243.51 57.6997 243.602 57.6506 243.678C57.6015 243.754 57.5244 243.807 57.436 243.826H57.2853Z" fill="#231F20"/>
<path d="M42.9971 239.955L46.2419 256.552H65.8854L69.1302 239.955H42.9971ZM65.1635 255.671H46.9797L44.076 240.835H68.0592L65.1635 255.671Z" fill="#231F20"/>
<path d="M68.0589 240.835L65.1631 255.671H46.9794L44.0757 240.835H68.0589Z" fill="white"/>
<path d="M69.9711 240.399H42.164L40.5693 234.949H71.5658L69.9711 240.399Z" fill="#231F20"/>
<path d="M313 256.552C313.02 256.947 312.884 257.335 312.621 257.631C312.359 257.928 311.991 258.11 311.596 258.138H14.4045C13.9773 258.138 13.5677 257.969 13.2657 257.667C12.9636 257.365 12.7939 256.955 12.7939 256.528C12.7939 256.101 12.9636 255.691 13.2657 255.389C13.5677 255.087 13.9773 254.917 14.4045 254.917H311.596C311.796 254.931 311.991 254.985 312.17 255.075C312.349 255.165 312.509 255.289 312.639 255.441C312.77 255.593 312.869 255.77 312.931 255.96C312.993 256.151 313.016 256.352 313 256.552Z" fill="#231F20"/>
</g>
<defs>
<clipPath id="clip0_1696_2067">
<rect width="300" height="248.17" fill="white" transform="translate(13 10)"/>
</clipPath>
</defs>
</svg>
